<?xml version="1.0" encoding="UTF-8" standalone="no"?>
<!-- Created with Inkscape (http://www.inkscape.org/) -->

<svg
   xmlns:dc="http://purl.org/dc/elements/1.1/"
   xmlns:cc="http://creativecommons.org/ns#"
   xmlns:rdf="http://www.w3.org/1999/02/22-rdf-syntax-ns#"
   xmlns:svg="http://www.w3.org/2000/svg"
   xmlns="http://www.w3.org/2000/svg"
   xmlns:sodipodi="http://sodipodi.sourceforge.net/DTD/sodipodi-0.dtd"
   xmlns:inkscape="http://www.inkscape.org/namespaces/inkscape"
   version="1.1"
   id="svg2"
   xml:space="preserve"
   width="600"
   height="600"
   viewBox="0 0 600 600.00001"
   sodipodi:docname="SVG Karen Plankton.svg"
   inkscape:version="0.92.2 5c3e80d, 2017-08-06"><metadata
     id="metadata8"><rdf:RDF><cc:Work
         rdf:about=""><dc:format>image/svg+xml</dc:format><dc:type
           rdf:resource="http://purl.org/dc/dcmitype/StillImage" /><dc:title /></cc:Work></rdf:RDF></metadata><defs
     id="defs6"><clipPath
       clipPathUnits="userSpaceOnUse"
       id="clipPath22"><path
         d="M 0.059998,302.76 H 151.79 V 0 H 0.059998 Z"
         id="path20"
         inkscape:connector-curvature="0" /></clipPath></defs><sodipodi:namedview
     pagecolor="#ffffff"
     bordercolor="#666666"
     borderopacity="1"
     objecttolerance="10"
     gridtolerance="10"
     guidetolerance="10"
     inkscape:pageopacity="0"
     inkscape:pageshadow="2"
     inkscape:window-width="1244"
     inkscape:window-height="662"
     id="namedview4"
     showgrid="false"
     inkscape:zoom="0.58455971"
     inkscape:cx="24.211643"
     inkscape:cy="338.71647"
     inkscape:window-x="0"
     inkscape:window-y="0"
     inkscape:window-maximized="0"
     inkscape:current-layer="g10" /><g
     id="g10"
     inkscape:groupmode="layer"
     inkscape:label="SB_MAINCHAR6_KAREN"
     transform="matrix(1.3333333,0,0,-1.3333333,0,600.00001)"><g
       id="MAIN_CHARACTER_6"
       transform="matrix(1.36059,0,0,1.36059,121.69722,19.033899)"
       inkscape:label="SB_MAINCHAR6_KAREN"
       sodipodi:insensitive="true"><title
         id="title110">Karen</title><g
         transform="translate(52.583,214.625)"
         id="g12"><path
           inkscape:connector-curvature="0"
           id="path14"
           style="fill:#ffffff;fill-opacity:1;fill-rule:nonzero;stroke:none"
           d="m 0,0 c -0.742,0.618 -1.4,1.975 -1.972,3.89 -0.571,1.916 -1.056,4.391 -1.45,7.247 -0.394,2.856 -0.698,6.093 -0.907,9.533 -0.21,3.44 -0.326,7.083 -0.344,10.749 -0.019,3.667 0.827,7.711 1.007,11.248 0.179,3.537 -0.307,6.567 0.078,9.617 0.384,3.05 0.874,5.768 1.47,7.974 0.598,2.207 1.636,3.403 2.452,4.409 0.791,0.976 2.176,2.336 4.59,3.08 2.415,0.743 5.527,1.371 9.104,1.882 3.578,0.512 7.693,1.592 11.973,1.871 4.279,0.28 8.722,-0.24 13.243,-0.192 4.52,0.048 9.29,-0.791 13.59,-0.975 3.334,-0.142 6.934,0.426 11.753,-0.125 3.622,-0.415 6.787,-0.945 9.265,-1.591 2.479,-0.645 4.272,-1.407 5.149,-2.284 0.666,-0.666 1.173,-2.101 1.542,-4.115 0.368,-2.013 0.183,-3.571 0.292,-6.551 0.108,-2.98 0.509,-7.384 0.394,-10.952 C 81.117,41.147 80.902,37.38 80.605,33.604 80.308,29.828 79.928,26.043 79.488,22.438 79.045,18.834 77.715,15.22 77.167,12.167 76.62,9.114 76.853,6.621 76.237,4.497 75.62,2.375 74.98,0.813 74.333,0 73.688,-0.812 72.133,-2.344 70.001,-3 67.87,-3.656 65.161,-3.437 61.947,-3.914 58.732,-4.392 55.076,-4.775 51.18,-5.054 45.943,-5.428 42.101,-6.124 39.001,-6.167 34.829,-6.224 30.597,-5.562 26.551,-5.376 22.505,-5.191 18.624,-4.879 15.107,-4.43 11.59,-3.98 8.085,-4.068 5.5,-3.333 2.915,-2.599 1.25,-1.042 0,0" /></g><g
         id="g16"><g
           clip-path="url(#clipPath22)"
           id="g18"><g
             transform="translate(151.084,294.792)"
             id="g24"><path
               inkscape:connector-curvature="0"
               id="path26"
               style="fill:#424a52;fill-opacity:1;fill-rule:nonzero;stroke:none"
               d="m 0,0 c -0.084,1.867 0.403,3.643 0.166,4.5 -3.25,0.583 -7.271,1.021 -11.62,1.356 -4.348,0.336 -9.984,0.133 -14.546,0.311 -4.563,0.177 -8.052,0.734 -11.943,0.84 C -41.834,7.114 -45.667,7.875 -48,8 -50.334,8.125 -54.532,7.479 -60.412,7.456 -66.292,7.432 -73.355,7.364 -80.417,7.313 -85.508,7.275 -89.62,7.048 -94.001,7.167 c -1.696,0.045 -3.858,0.489 -5.5,0.5 -5.88,0.039 -11.5,-0.25 -13.833,0 -1.958,-1.125 -4.417,-2.485 -7.039,-3.922 -2.623,-1.438 -5.847,-2.807 -8.461,-4.245 -2.614,-1.437 -4.62,-2.943 -6.555,-4.068 -1.934,-1.125 -3.362,-2.015 -3.945,-2.515 0.042,-2.417 0.01,-5.662 -0.052,-9.3 -0.043,-2.502 -0.101,-5.195 -0.16,-7.928 -0.791,-0.622 -1.707,-1.753 -2.455,-2.189 -0.898,-0.523 -1.552,-0.031 -2.52,-0.688 -0.969,-0.656 -1.985,-1.39 -3.071,-2.226 -1.086,-0.836 -2.242,-1.774 -3.492,-2.836 0.562,-1.5 0.922,-3.734 1.129,-6.371 0.207,-2.637 0.262,-5.676 0.215,-8.785 -0.047,-3.11 -0.895,-6.676 -1.094,-9.594 -0.199,-2.918 0.25,-5.188 0,-7.25 0.375,-0.688 0.938,-1.375 1.648,-2.047 0.711,-0.672 4.87,-2.49 6.019,-3.036 0.908,-0.433 1.685,-1.259 2.589,-1.803 -0.154,-3.283 -0.263,-6.477 -0.254,-9.291 0.011,-3.494 0.201,-6.408 0.701,-8.2 1.917,-1.208 3.227,-3.197 5.63,-4.54 2.404,-1.344 5.903,-2.043 8.393,-3.286 2.49,-1.242 4.923,-2.376 7.098,-3.281 2.175,-0.907 4.091,-1.585 5.55,-1.918 3.844,0.315 6.143,-0.082 10.126,0.152 1.802,0.105 5.274,0.871 7.073,0.962 7.575,0.385 13.167,-0.081 16.76,0.038 0.145,0.004 0.285,0.014 0.429,0.02 -0.062,-5.063 -1.201,-10.791 -1.429,-19.187 -0.25,-9.222 0.605,-21.662 0.167,-31.49 -0.437,-9.828 -1.792,-17.59 -2.167,-24.843 -0.263,-5.101 -0.043,-9.942 0.089,-12.893 -4.205,-0.873 -7.244,-3.899 -6.422,-7.275 0.267,-1.097 0.947,-2.231 1.945,-3.285 -2.028,-2.803 -3.987,-6.252 -5.945,-9.215 -2.375,-3.593 -4.75,-6.458 -7.75,-11.582 0,-4.25 0.348,-7.094 0.583,-13.75 0.095,-2.666 -0.673,-6.997 -0.5,-10.168 0.103,-1.875 0.278,-3.669 0.463,-5.349 -3.658,-0.215 -9.611,-0.314 -13.963,-0.817 -5.406,-0.624 -8.166,-1.542 -11.666,-2.166 -3.5,-0.626 -6.667,-2.324 -8.667,-4.668 -2,-2.343 -2.917,-4.75 -1.167,-8 4.75,-2.124 11.177,-4.54 18.334,-7.666 7.156,-3.124 14.458,-7.292 20.583,-9.666 3.987,0 10.897,-0.14 19.583,0.5 4.931,0.363 10.762,1.382 16.136,1.812 5.675,0.454 11.382,0.917 16.665,1.33 8.536,0.667 15.965,1.203 20.366,1.358 3.126,2.5 4.188,6 3.719,9.124 -0.469,3.126 -3.052,5.208 -6.052,6.208 -3,1 -7.729,3.48 -14.073,5.605 -6.07,2.033 -13.084,4.352 -19.921,6.52 -0.187,2.621 -0.373,5.721 -0.34,9.043 0.059,5.813 0.792,12.25 0.667,18.5 -1,1.874 -2.177,7.124 -3.333,11.5 -0.981,3.712 -1.954,6.792 -3.523,9.55 1.307,1.028 2.174,2.282 2.523,3.616 0.828,3.168 -1.252,6.765 -4.856,8.604 0.165,4.715 0.604,11.883 0.856,19.23 0.297,8.648 0.333,17.531 0.708,27.374 0.375,9.844 1.661,19.602 1.958,27.626 0.244,6.609 -0.182,12.037 -0.305,15.528 0.269,0.012 0.542,0.028 0.804,0.034 4.213,0.105 7.71,0.188 10.168,0.271 1.604,0.055 4.077,-0.479 6.834,-0.5 1.466,-0.011 2.895,0.506 4.58,0.487 2.835,-0.032 6.922,-0.468 10.086,-0.487 2.25,-0.013 6.073,0.82 8.334,0.833 5.628,0.032 8.371,-0.261 12.413,0.065 4.225,0.341 7.392,0.893 8.601,1.769 0.5,2.208 -0.022,5.013 0.32,8.167 0.342,3.153 1.549,6.656 1.756,10.312 0.207,3.656 0.817,7.971 0.91,11.688 0.091,3.716 -0.334,6.833 -0.334,10.166 0,3.334 0.208,8.406 0.493,14.245 0.283,5.839 0.872,13.193 1.175,19.589 C 0.635,-16.438 0.651,-11 0.706,-5.995 0.736,-3.225 0.082,-1.839 0,0" /></g></g></g><g
         transform="translate(31.75,295.958)"
         id="g28"><path
           inkscape:connector-curvature="0"
           id="path30"
           style="fill:#a09d9e;fill-opacity:1;fill-rule:nonzero;stroke:none"
           d="M 0,0 C 1.117,0.605 2.335,1.408 3.433,2.146 3.404,-0.538 3.418,-4.609 3.334,-6.333 3.213,-8.767 2.516,-12.055 2.41,-14.786 c -0.105,-2.731 0.34,-5.209 0.257,-8.047 -0.084,-2.838 -0.696,-6.038 -0.749,-8.795 -0.054,-2.757 -0.09,-5.425 -0.105,-7.911 -0.016,-2.486 -0.011,-4.789 0.019,-6.814 0.03,-2.025 0.085,-3.772 0.168,-5.147 0.084,-1.375 0.149,-3.031 0.2,-4.895 0.046,-1.651 0.081,-3.473 0.11,-5.399 -0.808,0.118 -1.818,0.124 -2.977,0.294 -1.83,0.268 -4.03,0.948 -6.27,1.146 -0.232,0.021 -0.467,0.042 -0.7,0.063 -0.204,1.249 -0.324,3.063 -0.389,5.231 -0.078,2.617 -0.078,5.737 -0.057,8.956 0.021,3.219 0.062,6.536 0.067,9.549 0.006,3.013 -0.525,4.888 -0.651,6.888 -0.124,2 0.251,5.031 0.141,7.299 -0.109,2.269 0.255,3.92 0.193,6.201 -0.063,2.282 -0.552,5.193 -0.537,7.232 0.014,1.742 0.064,3.336 0.156,4.728 0.769,0.424 1.543,0.848 2.318,1.27 C -3.735,-1.489 -2.159,-1.169 0,0" /></g><g
         transform="translate(18.18,289.034)"
         id="g32"><path
           inkscape:connector-curvature="0"
           id="path34"
           style="fill:#a09d9e;fill-opacity:1;fill-rule:nonzero;stroke:none"
           d="m 0,0 c 0.967,0.554 1.989,1.129 3.033,1.709 -0.096,-1.408 -0.14,-2.971 -0.14,-4.652 0,-1.898 0.052,-3.935 0.135,-6.029 0.084,-2.093 0.198,-4.244 0.323,-6.372 0.125,-2.128 0.261,-4.232 0.386,-6.232 0.125,-2 0.156,-4.708 0.151,-7.721 -0.005,-3.013 0.536,-7.394 0.515,-10.612 -0.021,-3.219 -0.604,-5.276 -0.526,-7.893 0.068,-2.269 0.195,-4.159 0.418,-5.41 -1.474,0.145 -2.937,0.308 -4.311,0.524 -1.65,0.26 -3.163,0.597 -4.426,1.05 0.003,0.242 0.005,0.482 0.012,0.729 0.083,3.328 0.417,7.083 0.333,9.167 -0.083,2.083 -0.591,4.698 -0.667,8.166 -0.075,3.469 0.72,7.875 0.667,11.834 -0.052,3.958 -0.986,6.948 -1,10.5 -0.01,2.914 0.302,6.135 0.439,8.446 C -3.363,-1.965 -1.772,-1.016 0,0" /></g><g
         transform="translate(6.25,229.458)"
         id="g36"><path
           inkscape:connector-curvature="0"
           id="path38"
           style="fill:#a09d9e;fill-opacity:1;fill-rule:nonzero;stroke:none"
           d="m 0,0 c -0.8711,0.504 -2.8779,0.954 -3.7529,1.767 0.1875,0.937 0.3955,3.446 0.4111,6.064 0.0156,2.617 0.7588,5.075 0.6753,8.336 -0.0835,3.26 -1.0576,6.132 -1.167,9 -0.1094,2.867 0.646,5.729 0.5835,7.166 0.375,0.125 0.853,1.214 1.5835,1.667 0.7305,0.453 1.7134,0.271 2.6353,0.896 0.9218,0.625 1.8984,1.297 2.8472,1.937 0.478,0.323 0.949,0.637 1.402,0.934 C 5.215,37.608 5.212,37.45 5.208,37.292 5.125,33.302 5.052,29.354 5.031,25.883 5.01,22.412 5.042,19.417 5.167,17.333 5.292,15.25 5.843,12.473 5.667,8.833 5.506,5.526 4.75,1.508 4.452,-2.283 4.425,-2.275 4.401,-2.269 4.374,-2.262 3.784,-2.102 0.8711,-0.504 0,0" /></g><g
         transform="translate(30.013,199.013)"
         id="g40"><path
           inkscape:connector-curvature="0"
           id="path42"
           style="fill:#a09d9e;fill-opacity:1;fill-rule:nonzero;stroke:none"
           d="m 0,0 c -2.591,1.096 -5.482,1.434 -7.763,2.612 -2.281,1.177 -3.953,3.193 -5.524,4.227 -1.57,1.034 -2.684,1.94 -3.143,2.606 -0.166,2.25 -1.208,4.589 -1.167,8 0.042,3.412 1.167,7.896 1.292,11.667 0.097,2.908 0.02,5.299 0.018,7.767 1.381,-0.394 3.218,-0.316 5.024,-0.6 2.101,-0.331 4.156,-1.156 6.396,-1.355 2.24,-0.198 4.411,-0.38 6.242,-0.648 C 2.403,34.125 3.318,33.945 4.083,33.723 4.185,31.871 4.555,30.414 4.57,28.279 4.588,25.884 4.159,22.633 4.174,20.195 4.19,17.758 4.207,15.336 4.23,13.004 4.253,10.672 4.282,8.43 4.323,6.352 4.363,4.274 4.415,2.359 4.482,0.683 4.519,-0.225 4.56,-1.056 4.607,-1.813 3.079,-1.255 1.531,-0.648 0,0" /></g><g
         transform="translate(84.917,99.292)"
         id="g44"><path
           inkscape:connector-curvature="0"
           id="path46"
           style="fill:#bbbaba;fill-opacity:1;fill-rule:nonzero;stroke:none"
           d="m 0,0 c -0.875,-2.063 -6.251,-6.292 -11,-6.168 -4.75,0.126 -8.157,3.094 -9,5.5 -0.764,2.177 1.458,4.638 3.832,5.274 0.005,-0.246 0.007,-0.458 10e-4,-0.606 1.125,-1.438 2.391,-2.391 3.688,-2.954 1.296,-0.562 2.625,-0.734 3.875,-0.609 1.25,0.125 2.421,0.547 3.406,1.172 0.897,0.569 1.626,1.312 2.129,2.149 C -1.086,2.653 0.766,1.805 0,0" /></g><g
         transform="translate(82.25,178.792)"
         id="g48"><path
           inkscape:connector-curvature="0"
           id="path50"
           style="fill:#a09d9e;fill-opacity:1;fill-rule:nonzero;stroke:none"
           d="m 0,0 c -0.072,-2.894 -0.698,-10.108 -0.667,-13 0.065,-5.983 -0.79,-13.681 -0.927,-19.969 -0.203,-9.328 -0.398,-18.242 -0.59,-25.465 -0.191,-7.223 -0.378,-12.754 -0.566,-15.316 -0.562,-1 -1.219,-1.704 -1.914,-2.153 -0.695,-0.449 -1.43,-0.644 -2.148,-0.629 -0.719,0.016 -1.422,0.242 -2.055,0.637 -0.633,0.395 -1.195,0.957 -1.633,1.645 0.125,3.374 -0.53,9.316 -0.167,17.25 0.363,7.933 1.745,17.859 2.136,27.468 0.161,3.975 -0.61,7.953 -0.469,11.865 0.2,5.547 0.212,11.073 0.333,16 0.173,7.029 1.002,13.037 1.159,17.339 3.078,0.22 6.001,0.554 8.687,0.749 C 0.84,13.35 0.165,6.579 0,0" /></g><g
         transform="translate(148.918,280.125)"
         id="g52"><path
           inkscape:connector-curvature="0"
           id="path54"
           style="fill:#bbbaba;fill-opacity:1;fill-rule:nonzero;stroke:none"
           d="M 0,0 C -0.054,-2.065 -0.632,-5.019 -0.688,-7.146 -0.824,-12.302 -1.363,-16.461 -1.5,-21 c -0.138,-4.539 0.124,-9.458 0,-12 -0.126,-2.541 0.372,-6.828 0.166,-11.333 -0.207,-4.505 -1.115,-9.229 -1.354,-14.167 -0.239,-4.937 -0.484,-9.708 -0.711,-13.546 C -3.626,-75.885 -3.834,-78.792 -4,-80 c -1.504,-0.334 -2.707,-1.123 -4.834,-1.333 -1.586,-0.158 -3.983,0.239 -5.81,0.138 -4.278,-0.237 -10.574,-1.107 -15.357,-1.138 -4.781,-0.032 -8.047,0.776 -12.18,0.81 -4.133,0.033 -7.821,-0.602 -10.154,-0.644 -2.333,-0.042 -6.572,0.49 -11.981,0.3 -2.496,-0.088 -4.368,-1.192 -7.185,-1.3 -3.289,-0.125 -7.562,0.745 -10.979,0.604 -3.767,-0.154 -6.38,-0.805 -9.188,-0.77 -2.969,0.036 -6.077,0.761 -8,0.666 -5.138,-0.252 -9.708,-1.166 -11.5,-1.333 -0.292,0.092 -0.59,0.196 -0.885,0.294 -0.08,1.017 -0.148,2.227 -0.203,3.611 -0.068,1.676 -0.119,3.59 -0.16,5.668 -0.04,2.078 -0.563,4.428 -0.585,6.76 -0.023,2.332 0.453,4.646 0.437,7.084 -0.016,2.437 -0.03,4.891 -0.048,7.285 -0.018,2.395 -0.039,4.731 -0.069,6.934 -0.03,2.203 -0.737,9.989 -0.82,11.364 -0.084,1.375 0.361,2.789 0.332,4.814 -0.03,2.025 -0.348,5.534 -0.332,8.019 0.015,2.486 0.364,3.949 0.418,6.706 0.053,2.757 0.123,5.602 0.207,8.44 0.083,2.839 0.179,5.671 0.285,8.402 0.105,2.73 0.22,5.36 0.34,7.794 0.119,2.433 0.244,4.671 0.371,6.618 0.088,1.354 0.176,2.557 0.264,3.599 0.159,0.1 0.314,0.197 0.448,0.275 2.033,0.06 3.109,-0.86 5.5,-0.834 2.608,0.029 6.558,1 9.438,0.998 1.28,0 2.251,-0.659 3.562,-0.664 4.343,-0.016 9.147,0.603 13.5,0.562 5.667,-0.051 10.98,-0.872 15.667,-0.896 4.688,-0.023 8.75,0.751 11.333,0.834 2.583,0.083 6.604,0.01 11.315,-0.146 4.711,-0.156 10.175,-1.271 15.519,-1.521 5.344,-0.25 10.568,0.365 15.049,0.167 C -5.802,17.969 -2.126,17.833 0,17.833 -0.084,15.583 -0.188,11.917 -0.305,7.523 -0.374,4.942 0.076,2.943 0,0" /></g><g
         transform="translate(26.625,288.292)"
         id="g56"><path
           inkscape:connector-curvature="0"
           id="path58"
           style="fill:#424a52;fill-opacity:1;fill-rule:nonzero;stroke:none"
           d="m 0,0 c 0,-0.828 -0.392,-1.5 -0.875,-1.5 -0.483,0 -0.875,0.672 -0.875,1.5 0,0.828 0.392,1.5 0.875,1.5 C -0.392,1.5 0,0.828 0,0" /></g><g
         transform="translate(58,73.292)"
         id="g60"><path
           inkscape:connector-curvature="0"
           id="path62"
           style="fill:#bbbaba;fill-opacity:1;fill-rule:nonzero;stroke:none"
           d="m 0,0 c 1.5,-0.938 3.531,-1.719 5.855,-2.305 2.325,-0.586 4.942,-0.977 7.614,-1.133 2.384,-0.14 4.156,-0.62 6.316,-0.474 -0.387,2.339 -1.169,6.159 -1.535,9.744 -0.422,4.13 -0.295,7.941 -0.99,11.666 C 17.172,17.5 17.089,17.497 17,17.5 13.694,17.624 10.73,18.68 8.482,20.154 6.639,18.068 4.151,14.875 1.917,11.332 -0.199,7.979 -2.652,4.089 -3.937,1.567 -2.832,0.974 -1.379,0.244 0.33,-0.5 0.203,-0.339 0.09,-0.174 0,0" /></g><g
         transform="translate(85,83.416)"
         id="g64"><path
           inkscape:connector-curvature="0"
           id="path66"
           style="fill:#bbbaba;fill-opacity:1;fill-rule:nonzero;stroke:none"
           d="M 0,0 C -0.949,3.239 -1.898,6.273 -2.893,8.578 -4.309,7.957 -5.996,7.542 -7.919,7.411 c 0.823,-3.848 1.41,-8.375 1.825,-12.442 0.358,-3.506 0.588,-6.657 0.733,-8.735 2.321,0.503 4.933,1.58 6.611,2.392 -0.258,-0.312 -0.569,-0.6 -0.906,-0.876 1.647,0.698 2.848,1.397 3.506,1.817 C 2.725,-7.113 1.043,-3.557 0,0" /></g><g
         transform="translate(54.339,61.118)"
         id="g68"><path
           inkscape:connector-curvature="0"
           id="path70"
           style="fill:#a09d9e;fill-opacity:1;fill-rule:nonzero;stroke:none"
           d="m 0,0 c 0.215,-2.146 -0.445,-5.413 -0.423,-7.494 0.063,-5.874 0.167,-10.5 0.167,-14.5 0,-2.351 1.715,-3.9 5.833,-5 2.887,-0.771 9.19,-1.987 12.667,-2 1.601,-0.005 3.174,0.078 4.676,0.252 0.046,2.765 0.265,10.022 0.459,17.29 0.219,8.188 0.407,16.376 0.282,18.126 -0.01,0.136 -0.028,0.299 -0.05,0.474 C 20.462,6.569 17.045,6.437 14.244,6.674 11.275,6.924 9.96,7.887 8.244,8.84 6.735,9.678 4.917,10.509 3.99,11.674 2.282,12.418 0.829,13.148 -0.276,13.741 -0.547,13.209 -0.77,12.733 -0.922,12.34 -0.922,7.98 -0.392,3.915 0,0" /></g><g
         transform="translate(79.75,68.042)"
         id="g72"><path
           inkscape:connector-curvature="0"
           id="path74"
           style="fill:#a09d9e;fill-opacity:1;fill-rule:nonzero;stroke:none"
           d="M 0,0 C 0.125,-1.75 0.719,-9.73 0.5,-17.918 0.306,-25.18 -0.525,-32.596 -0.712,-35.403 4.835,-34.432 9,-32.043 9,-27.918 9,-22.292 8.5,-14.313 8.5,-8.25 8.5,-2.188 9.167,4.124 9.167,5.75 9.146,5.813 9.121,4.877 9.1,4.941 8.442,4.521 7.241,3.822 5.594,3.124 4.209,1.995 2.213,1.162 -0.042,0.597 -0.027,0.383 -0.013,0.172 0,0" /></g><g
         transform="translate(27.458,269.292)"
         id="g76"><path
           inkscape:connector-curvature="0"
           id="path78"
           style="fill:#424a52;fill-opacity:1;fill-rule:nonzero;stroke:none"
           d="m 0,0 c 0,-0.828 -0.392,-1.5 -0.875,-1.5 -0.483,0 -0.875,0.672 -0.875,1.5 0,0.828 0.392,1.5 0.875,1.5 C -0.392,1.5 0,0.828 0,0" /></g><g
         transform="translate(28.292,256.125)"
         id="g80"><path
           inkscape:connector-curvature="0"
           id="path82"
           style="fill:#424a52;fill-opacity:1;fill-rule:nonzero;stroke:none"
           d="m 0,0 c 0,-0.828 -0.392,-1.5 -0.875,-1.5 -0.483,0 -0.875,0.672 -0.875,1.5 0,0.828 0.392,1.5 0.875,1.5 C -0.392,1.5 0,0.828 0,0" /></g><g
         transform="translate(27.792,239.959)"
         id="g84"><path
           inkscape:connector-curvature="0"
           id="path86"
           style="fill:#424a52;fill-opacity:1;fill-rule:nonzero;stroke:none"
           d="m 0,0 c 0,-0.828 -0.392,-1.5 -0.875,-1.5 -0.483,0 -0.875,0.672 -0.875,1.5 0,0.828 0.392,1.5 0.875,1.5 C -0.392,1.5 0,0.828 0,0" /></g><g
         transform="translate(29.333,227.854)"
         id="g88"><path
           inkscape:connector-curvature="0"
           id="path90"
           style="fill:#424a52;fill-opacity:1;fill-rule:nonzero;stroke:none"
           d="m 0,0 c 0,-0.829 -0.392,-1.5 -0.875,-1.5 -0.483,0 -0.875,0.671 -0.875,1.5 0,0.828 0.392,1.5 0.875,1.5 C -0.392,1.5 0,0.828 0,0" /></g><g
         transform="translate(18.583,229.729)"
         id="g92"><path
           inkscape:connector-curvature="0"
           id="path94"
           style="fill:#424a52;fill-opacity:1;fill-rule:nonzero;stroke:none"
           d="m 0,0 c 0,-0.829 -0.392,-1.5 -0.875,-1.5 -0.483,0 -0.875,0.671 -0.875,1.5 0,0.828 0.392,1.5 0.875,1.5 C -0.392,1.5 0,0.828 0,0" /></g><g
         transform="translate(50.75,281.292)"
         id="g96"><path
           inkscape:connector-curvature="0"
           id="path98"
           style="fill:#424a52;fill-opacity:1;fill-rule:nonzero;stroke:none"
           d="m 0,0 c -0.808,-1.253 -1.521,-3.153 -2.136,-5.533 -0.614,-2.38 -1.132,-5.238 -1.547,-8.408 -0.416,-3.17 -0.606,-6.602 -0.817,-10.226 -0.211,-3.623 -0.444,-7.436 -0.445,-11.175 -10e-4,-3.739 0.104,-7.451 0.319,-10.969 0.215,-3.518 1.19,-6.395 1.626,-9.356 0.293,-1.987 0.034,-5.072 0.997,-8.068 0.663,-2.065 1.441,-3.599 2.336,-4.432 1.318,-1.226 2.809,-2.453 5.5,-3.333 1.417,-0.463 4.98,-1.171 10.238,-1.97 3.653,-0.555 7.728,-0.113 11.929,-0.363 4.201,-0.251 8.527,-1.195 12.864,-1.162 4.337,0.034 7.576,0.697 11.636,0.995 4.06,0.297 8.94,0.229 12.31,0.769 3.37,0.541 5.757,1.634 8.024,2.398 2.267,0.764 4.415,1.199 5.166,2.166 0.584,0.75 1.204,2.297 1.829,4.442 0.624,2.145 1.737,3.915 2.339,7.058 0.601,3.144 0.691,7.66 1.206,11.404 0.515,3.744 0.97,7.69 1.335,11.638 0.365,3.947 -0.359,8.037 -0.209,11.792 0.151,3.754 1.175,7.174 1.047,10.338 -0.127,3.164 -0.41,5.933 -0.879,8.11 C 84.199,-1.708 82.876,-0.458 82,0.333 80.761,1.455 79.296,2.758 76.503,3.579 73.711,4.401 69.55,5.973 65.667,6.5 61.785,7.027 58.18,6.51 53.669,6.749 49.158,6.988 44.677,6.043 40,6 35.322,5.957 30.548,7.654 26.167,7.333 21.787,7.013 17.571,5.717 13.948,5.126 10.326,4.536 7.735,3.355 5.333,2.5 2.932,1.645 0.719,1.114 0,0" /></g><g
         transform="translate(49.917,290.625)"
         id="g100"><path
           inkscape:connector-curvature="0"
           id="path102"
           style="fill:#424a52;fill-opacity:1;fill-rule:nonzero;stroke:none"
           d="m 0,0 c 0,-1.288 -0.572,-3.114 -1.417,-3.958 -0.844,-0.845 -1.961,-0.709 -3.25,-0.709 -1.288,0 -2.455,0.523 -3.299,1.367 -0.845,0.845 -1.701,1.678 -1.701,2.967 0,1.288 0.656,3.28 1.5,4.125 0.845,0.844 2.212,0.875 3.5,0.875 1.289,0 2.156,-0.781 3,-1.625 C -0.822,2.197 0,1.289 0,0" /></g><g
         transform="translate(48.417,290.625)"
         id="g104"><path
           inkscape:connector-curvature="0"
           id="path106"
           style="fill:#bbbaba;fill-opacity:1;fill-rule:nonzero;stroke:none"
           d="m 0,0 c 0,-0.874 -0.354,-1.666 -0.927,-2.239 -0.574,-0.573 -1.365,-0.928 -2.24,-0.928 -0.874,0 -1.926,0.011 -2.5,0.584 -0.572,0.573 -0.666,1.709 -0.666,2.583 0,0.875 0.354,1.666 0.927,2.239 0.573,0.573 1.365,0.928 2.239,0.928 0.875,0 1.666,-0.355 2.24,-0.928 C -0.354,1.666 0,0.875 0,0" /></g><g
         transform="translate(144.202,292.829)"
         id="g108"><path
           inkscape:connector-curvature="0"
           id="path110"
           style="fill:#424a52;fill-opacity:1;fill-rule:nonzero;stroke:none"
           d="M 0,0 C 0.991,-0.823 2.032,-2.428 2.143,-3.617 2.255,-4.805 1.437,-5.579 0.616,-6.57 c -0.823,-0.994 -1.97,-1.558 -3.159,-1.671 -1.188,-0.11 -2.376,-0.237 -3.368,0.585 -0.993,0.821 -2.109,2.597 -2.219,3.786 -0.113,1.189 0.736,2.261 1.558,3.254 0.823,0.992 1.977,1.161 3.166,1.273 C -2.218,0.768 -0.993,0.822 0,0" /></g><g
         transform="translate(143.244,291.673)"
         id="g112"><path
           inkscape:connector-curvature="0"
           id="path114"
           style="fill:#bbbaba;fill-opacity:1;fill-rule:nonzero;stroke:none"
           d="M 0,0 C 0.674,-0.558 1.056,-1.336 1.132,-2.143 1.208,-2.949 0.975,-3.785 0.418,-4.458 -0.14,-5.132 -0.82,-5.936 -1.625,-6.012 c -0.808,-0.075 -1.742,0.577 -2.415,1.135 -0.673,0.558 -1.057,1.337 -1.134,2.142 -0.074,0.808 0.157,1.644 0.716,2.318 0.557,0.672 1.337,1.056 2.141,1.131 C -1.509,0.79 -0.673,0.558 0,0" /></g><g
         transform="translate(135.39,202.373)"
         id="g116"><path
           inkscape:connector-curvature="0"
           id="path118"
           style="fill:#424a52;fill-opacity:1;fill-rule:nonzero;stroke:none"
           d="m 0,0 c -1.222,0.407 -2.773,1.527 -3.308,2.594 -0.534,1.07 -0.052,2.085 0.355,3.307 0.407,1.223 1.271,2.165 2.34,2.701 C 0.454,9.135 1.516,9.684 2.738,9.276 3.96,8.869 5.643,7.618 6.178,6.55 6.712,5.483 6.309,4.176 5.902,2.953 5.495,1.73 4.481,1.156 3.412,0.62 2.344,0.085 1.223,-0.407 0,0" /></g><g
         transform="translate(135.865,203.796)"
         id="g120"><path
           inkscape:connector-curvature="0"
           id="path122"
           style="fill:#bbbaba;fill-opacity:1;fill-rule:nonzero;stroke:none"
           d="M 0,0 C -0.83,0.276 -1.47,0.863 -1.832,1.588 -2.195,2.312 -2.281,3.175 -2.005,4.004 -1.729,4.835 -1.386,5.83 -0.661,6.192 0.063,6.555 1.171,6.285 2.001,6.008 2.83,5.733 3.469,5.146 3.832,4.422 4.194,3.696 4.28,2.834 4.004,2.004 3.727,1.174 3.141,0.535 2.417,0.173 1.692,-0.19 0.829,-0.276 0,0" /></g><g
         transform="translate(48.972,200.351)"
         id="g124"><path
           inkscape:connector-curvature="0"
           id="path126"
           style="fill:#424a52;fill-opacity:1;fill-rule:nonzero;stroke:none"
           d="m 0,0 c -0.873,-0.949 -2.531,-1.903 -3.724,-1.953 -1.193,-0.048 -1.922,0.808 -2.87,1.68 -0.948,0.874 -1.452,2.048 -1.502,3.242 -0.048,1.193 -0.114,2.386 0.759,3.334 0.873,0.948 2.704,1.968 3.898,2.018 C -2.247,8.37 -1.22,7.467 -0.272,6.594 0.675,5.721 0.784,4.561 0.835,3.366 0.883,2.173 0.873,0.948 0,0" /></g><g
         transform="translate(47.869,201.367)"
         id="g128"><path
           inkscape:connector-curvature="0"
           id="path130"
           style="fill:#bbbaba;fill-opacity:1;fill-rule:nonzero;stroke:none"
           d="m 0,0 c -0.593,-0.643 -1.39,-0.985 -2.2,-1.019 -0.808,-0.034 -1.631,0.242 -2.274,0.834 -0.644,0.592 -1.412,1.314 -1.444,2.123 -0.034,0.81 0.666,1.709 1.259,2.353 0.592,0.642 1.389,0.985 2.199,1.019 0.81,0.032 1.631,-0.243 2.275,-0.836 C 0.458,3.882 0.801,3.085 0.834,2.276 0.868,1.466 0.592,0.643 0,0" /></g><g
         transform="translate(47.91,246.044)"
         id="g132"><path
           inkscape:connector-curvature="0"
           id="path134"
           style="fill:#1f286d;fill-opacity:1;fill-rule:nonzero;stroke:none"
           d="m 0,0 c 0.003,-0.568 0.012,-1.133 0.02,-1.699 3.69,-0.43 6.919,0.007 9.987,-0.053 3.228,-0.064 6.285,-0.689 7.155,-0.627 0.2,0.014 0.381,0.15 0.566,0.381 0.185,0.231 0.375,0.556 0.595,0.948 0.265,0.472 0.579,1.032 1.013,1.449 0.433,0.417 0.986,0.691 1.728,0.592 0.701,-0.094 1.121,-0.573 1.401,-1.258 0.281,-0.685 0.062,-2.069 0.208,-2.985 0.136,-0.849 0.633,-1.129 0.816,-1.679 0.183,-0.55 0.413,-0.877 0.735,-0.831 0.311,0.124 0.631,0.999 0.928,2.113 0.297,1.114 0.571,2.466 0.788,3.543 0.488,2.415 0.911,5.693 1.734,7.687 0.824,1.994 2.051,2.703 3.753,2.791 0.3,0.015 0.586,-0.029 0.849,-0.128 0.265,-0.1 0.506,-0.256 0.718,-0.465 0.766,-0.755 0.551,-2.689 0.68,-4.531 0.129,-1.843 0.602,-3.594 0.512,-6.019 -0.076,-2.011 -0.161,-4.267 -0.069,-6.173 0.092,-1.906 0.361,-3.463 0.99,-4.073 0.094,-0.092 0.194,-0.156 0.306,-0.194 0.111,-0.04 0.235,-0.053 0.376,-0.043 1.106,0.075 2.027,1.456 2.718,4.502 0.69,3.046 1.151,7.757 1.594,10.995 0.647,4.739 1.208,8.558 1.969,11.175 0.762,2.616 1.726,4.028 3.183,3.954 1.474,-0.076 2.212,-1.847 2.496,-5.433 0.201,-2.533 -0.257,-5.305 -0.409,-9.691 -0.064,-1.825 0.284,-4.48 0.184,-6.636 -0.154,-3.32 -0.347,-7.488 -0.361,-10.928 -0.014,-3.441 0.152,-6.155 0.714,-6.566 0.744,0.087 1.314,2.543 1.752,5.625 0.437,3.081 0.742,6.789 0.955,9.381 0.363,4.426 0.801,7.804 1.256,10.457 0.456,2.653 0.928,4.582 1.815,5.29 0.192,0.153 0.4,0.262 0.618,0.324 0.217,0.062 0.444,0.078 0.674,0.045 1.499,-0.214 2.179,-1.716 2.447,-3.902 0.141,-1.149 0.473,-2.152 0.446,-3.59 -0.023,-1.301 -0.622,-7.565 -0.612,-9.026 0.009,-1.461 0.114,-2.634 0.431,-2.872 0.65,0.163 1.098,0.889 1.436,1.86 0.339,0.969 0.57,2.183 0.787,3.322 0.259,1.369 0.525,2.761 1.008,3.766 0.484,1.005 1.185,1.621 2.319,1.44 1.032,-0.165 1.644,-0.657 2.032,-1.256 0.389,-0.599 0.553,-1.307 0.692,-1.903 0.147,-0.631 0.262,-1.048 0.447,-1.313 0.185,-0.265 0.44,-0.376 0.867,-0.394 1.433,-0.059 14.732,-0.062 17.605,-0.008 0.155,1.6 0.299,3.21 0.426,4.821 0.297,3.775 0.512,7.543 0.625,11.111 0.114,3.568 -0.287,7.971 -0.395,10.952 -0.109,2.98 0.077,4.538 -0.292,6.551 -0.368,2.014 -0.876,3.449 -1.542,4.115 -0.876,0.876 -2.669,1.638 -5.149,2.284 -2.478,0.645 -5.643,1.176 -9.264,1.59 -4.82,0.552 -8.42,-0.016 -11.754,0.126 -4.3,0.184 -9.069,1.023 -13.59,0.975 -4.52,-0.049 -8.964,0.472 -13.243,0.192 C 26.394,39.801 22.279,38.722 18.702,38.21 15.124,37.699 12.013,37.071 9.598,36.327 7.183,35.584 5.798,34.224 5.007,33.248 4.191,32.241 3.153,31.045 2.556,28.839 1.959,26.632 1.47,23.914 1.085,20.865 0.7,17.814 1.186,14.785 1.007,11.248 0.827,7.711 -0.019,3.666 0,0" /></g><g
         transform="translate(123.792,241.823)"
         id="g136"><path
           inkscape:connector-curvature="0"
           id="path138"
           style="fill:#1f286d;fill-opacity:1;fill-rule:nonzero;stroke:none"
           d="m 0,0 c -3.648,0 -6.699,-0.594 -8.208,-0.531 -1.034,0.043 -2.132,1.092 -2.518,1.651 -0.386,0.559 -0.548,1.253 -0.684,1.84 -0.141,0.607 -0.26,1.07 -0.473,1.403 -0.211,0.332 -0.516,0.533 -1.027,0.615 -0.415,0.066 -0.727,-0.45 -0.981,-1.225 -0.254,-0.776 -0.451,-1.81 -0.636,-2.78 -0.259,-1.359 -0.534,-2.809 -1.023,-3.989 -0.491,-1.179 -1.195,-2.089 -2.31,-2.368 -0.24,-0.06 -0.475,-0.066 -0.696,-0.019 -0.221,0.046 -0.427,0.144 -0.608,0.293 -0.585,0.48 -1.116,0.466 -1.211,1.912 -0.094,1.447 0.248,4.354 0.37,6.821 0.099,2.015 0.224,4.544 0.12,6.6 -0.106,2.055 -0.442,3.636 -1.263,3.753 -0.013,0.002 -0.028,0.004 -0.051,-0.002 -0.022,-0.007 -0.051,-0.022 -0.093,-0.055 -0.697,-0.557 -1.201,-2.718 -1.591,-5.497 -0.392,-2.778 -0.67,-6.174 -0.92,-9.2 -0.188,-2.297 -0.711,-3.723 -0.906,-5.587 -0.228,-2.175 -0.134,-4.705 -0.447,-6.219 -0.582,-2.811 -1.384,-4.416 -2.673,-4.567 -0.209,-0.025 -0.411,-0.004 -0.602,0.06 -0.189,0.064 -0.367,0.172 -0.527,0.321 -0.805,0.749 -1.152,2.767 -1.237,5.923 -0.044,1.638 0.25,4.916 0.32,7.149 0.065,2.069 -0.1,3.051 0.019,5.601 0.151,3.262 0.384,8.287 0.356,12.508 -0.027,4.221 -0.315,7.638 -1.205,7.684 -0.843,0.043 -1.552,-2.03 -2.144,-4.806 -0.591,-2.776 -1.067,-6.256 -1.446,-9.028 -0.191,-1.397 -0.394,-3.882 -0.58,-5.126 -0.497,-3.342 -0.979,-4.949 -1.597,-7.05 -0.847,-2.883 -1.92,-4.505 -3.519,-4.614 -0.352,-0.025 -0.686,0.02 -0.993,0.131 -0.308,0.11 -0.589,0.287 -0.835,0.525 -0.869,0.844 -1.26,2.442 -1.41,4.453 -0.15,2.011 -0.059,4.434 0.034,6.926 0.073,1.964 0.152,4.059 0.08,5.794 -0.072,1.735 -0.296,3.109 -0.825,3.632 -0.064,0.062 -0.127,0.106 -0.198,0.131 -0.071,0.027 -0.148,0.037 -0.241,0.032 -1.12,-0.058 -1.948,-1.41 -2.594,-3.232 -0.645,-1.821 -1.108,-4.112 -1.499,-6.045 -0.387,-1.919 -0.13,-3.814 -0.57,-5.016 -0.44,-1.201 -1.579,-1.709 -2.394,-1.826 -1.084,-0.155 -1.73,0.427 -2.145,1.288 -0.414,0.86 -0.596,2.001 -0.749,2.963 -0.065,0.409 -0.158,0.994 -0.274,1.497 -0.116,0.502 -0.255,0.922 -0.412,1.002 -0.214,0.028 -1.268,-0.298 -1.526,-0.757 -0.25,-0.446 -0.241,-1.479 -0.614,-1.879 -0.373,-0.401 -1.267,-0.577 -1.886,-0.621 -0.887,-0.064 -2.966,-0.279 -6.253,-0.215 -3.065,0.059 -6.807,0.26 -10.542,0.742 0.053,-2.566 0.151,-5.097 0.299,-7.524 0.21,-3.44 0.514,-6.677 0.908,-9.533 0.394,-2.856 0.878,-5.332 1.45,-7.247 0.571,-1.916 1.23,-3.272 1.971,-3.89 1.251,-1.042 2.916,-2.599 5.5,-3.333 2.585,-0.735 6.09,-0.648 9.607,-1.097 3.517,-0.449 7.399,-0.761 11.445,-0.946 4.046,-0.186 8.277,-0.848 12.449,-0.791 3.101,0.043 6.942,0.738 12.18,1.113 3.895,0.278 7.551,0.662 10.766,1.14 3.215,0.477 5.923,0.258 8.054,0.914 2.132,0.656 3.688,2.187 4.333,3 0.646,0.812 1.287,2.375 1.903,4.497 0.616,2.123 0.383,4.616 0.93,7.67 0.548,3.053 1.878,6.667 2.321,10.271 0.193,1.583 0.373,3.203 0.541,4.84 C 6.769,0.026 3.347,0 0,0" /></g><g
         transform="translate(79,89.792)"
         id="g140"><path
           inkscape:connector-curvature="0"
           id="path142"
           style="fill:#424a52;fill-opacity:1;fill-rule:nonzero;stroke:none"
           d="M 0,0 C 1.66,0.553 1.75,-1.75 0.5,-2 -0.75,-2.25 -0.75,-0.25 0,0" /></g><g
         transform="translate(81.5,77.292)"
         id="g144"><path
           inkscape:connector-curvature="0"
           id="path146"
           style="fill:#424a52;fill-opacity:1;fill-rule:nonzero;stroke:none"
           d="M 0,0 C 1.66,0.553 1.75,-1.75 0.5,-2 -0.75,-2.25 -0.75,-0.25 0,0" /></g><g
         transform="translate(82.25,65.542)"
         id="g148"><path
           inkscape:connector-curvature="0"
           id="path150"
           style="fill:#424a52;fill-opacity:1;fill-rule:nonzero;stroke:none"
           d="M 0,0 C 1.66,0.553 1.75,-1.75 0.5,-2 -0.75,-2.25 -0.75,-0.25 0,0" /></g><g
         transform="translate(82,52.292)"
         id="g152"><path
           inkscape:connector-curvature="0"
           id="path154"
           style="fill:#424a52;fill-opacity:1;fill-rule:nonzero;stroke:none"
           d="M 0,0 C 1.66,0.553 1.75,-1.75 0.5,-2 -0.75,-2.25 -0.75,-0.25 0,0" /></g><g
         transform="translate(81.75,41.292)"
         id="g156"><path
           inkscape:connector-curvature="0"
           id="path158"
           style="fill:#424a52;fill-opacity:1;fill-rule:nonzero;stroke:none"
           d="M 0,0 C 1.66,0.553 1.75,-1.75 0.5,-2 -0.75,-2.25 -0.75,-0.25 0,0" /></g><g
         transform="translate(37,28.542)"
         id="g160"><path
           inkscape:connector-curvature="0"
           id="path162"
           style="fill:#424a52;fill-opacity:1;fill-rule:nonzero;stroke:none"
           d="M 0,0 C 0.929,0.371 2.25,-1.75 1.5,-2 0.75,-2.25 -1.25,-0.5 0,0" /></g><g
         transform="translate(49.25,33.792)"
         id="g164"><path
           inkscape:connector-curvature="0"
           id="path166"
           style="fill:#424a52;fill-opacity:1;fill-rule:nonzero;stroke:none"
           d="M 0,0 C 0.929,0.371 2.25,-1.75 1.5,-2 0.75,-2.25 -1.25,-0.5 0,0" /></g><g
         transform="translate(29.197,18.735)"
         id="g168"><path
           inkscape:connector-curvature="0"
           id="path170"
           style="fill:#424a52;fill-opacity:1;fill-rule:nonzero;stroke:none"
           d="m 0,0 c 0,-1.475 -0.47,-2.809 -1.23,-3.775 -0.761,-0.965 -1.811,-1.562 -2.971,-1.562 -1.16,0 -1.882,0.949 -2.642,1.915 -0.76,0.966 -1.559,1.947 -1.559,3.422 0,1.473 0.59,2.591 1.351,3.557 0.76,0.964 1.69,1.779 2.85,1.779 1.16,0 1.91,-0.918 2.671,-1.883 C -0.77,2.487 0,1.473 0,0" /></g><g
         transform="translate(26.338,18.735)"
         id="g172"><path
           inkscape:connector-curvature="0"
           id="path174"
           style="fill:#bbbaba;fill-opacity:1;fill-rule:nonzero;stroke:none"
           d="m 0,0 c 0,-0.912 -0.462,-1.651 -1.032,-1.651 -0.57,0 -1.031,0.739 -1.031,1.651 0,0.912 0.461,1.651 1.031,1.651 C -0.462,1.651 0,0.912 0,0" /></g><g
         transform="translate(59.438,5.416)"
         id="g176"><path
           inkscape:connector-curvature="0"
           id="path178"
           style="fill:#424a52;fill-opacity:1;fill-rule:nonzero;stroke:none"
           d="m 0,0 c 0,-1.473 -0.056,-2.495 -0.816,-3.46 -0.76,-0.965 -2.19,-1.956 -3.351,-1.956 -1.16,0 -1.83,0.991 -2.59,1.956 -0.761,0.965 -1.231,2.3 -1.231,3.774 0,1.474 0.47,2.808 1.231,3.773 0.76,0.966 1.639,1.018 2.799,1.018 1.16,0 2.382,-0.052 3.142,-1.018 C -0.056,3.122 0,1.474 0,0" /></g><g
         transform="translate(56.993,5.73)"
         id="g180"><path
           inkscape:connector-curvature="0"
           id="path182"
           style="fill:#bbbaba;fill-opacity:1;fill-rule:nonzero;stroke:none"
           d="m 0,0 c 0,-0.912 -0.462,-1.651 -1.032,-1.651 -0.57,0 -1.031,0.739 -1.031,1.651 0,0.912 0.461,1.651 1.031,1.651 C -0.462,1.651 0,0.912 0,0" /></g><g
         transform="translate(117.55,9.136)"
         id="g184"><path
           inkscape:connector-curvature="0"
           id="path186"
           style="fill:#424a52;fill-opacity:1;fill-rule:nonzero;stroke:none"
           d="m 0,0 c 0,-1.473 -0.47,-2.808 -1.231,-3.774 -0.76,-0.965 -1.811,-1.563 -2.971,-1.563 -1.16,0 -2.732,0.548 -3.493,1.513 -0.76,0.966 -0.707,2.351 -0.707,3.824 0,1.474 0.885,2.502 1.644,3.468 0.761,0.966 1.396,1.868 2.556,1.868 1.16,0 2.211,-0.596 2.971,-1.562 C -0.47,2.808 0,1.474 0,0" /></g><g
         transform="translate(114.69,9.136)"
         id="g188"><path
           inkscape:connector-curvature="0"
           id="path190"
           style="fill:#bbbaba;fill-opacity:1;fill-rule:nonzero;stroke:none"
           d="m 0,0 c 0,-0.912 -0.461,-1.651 -1.031,-1.651 -0.571,0 -1.032,0.739 -1.032,1.651 0,0.912 0.461,1.652 1.032,1.652 C -0.461,1.652 0,0.912 0,0" /></g><g
         transform="translate(123.792,241.823)"
         id="g192"><path
           inkscape:connector-curvature="0"
           id="path194"
           style="fill:#74c128;fill-opacity:1;fill-rule:nonzero;stroke:none"
           d="M 0,0 C 3.347,0 6.769,0.026 8.82,0.08 8.872,0.58 8.921,1.081 8.97,1.585 6.097,1.531 -7.202,1.534 -8.635,1.593 c -0.427,0.018 -0.682,0.13 -0.867,0.394 -0.185,0.265 -0.3,0.682 -0.447,1.313 -0.139,0.596 -0.303,1.304 -0.692,1.903 -0.388,0.6 -1,1.091 -2.032,1.256 -1.134,0.182 -1.835,-0.435 -2.319,-1.44 -0.483,-1.004 -0.749,-2.397 -1.008,-3.766 -0.217,-1.138 -0.448,-2.353 -0.787,-3.322 -0.338,-0.971 -0.786,-1.697 -1.436,-1.86 -0.317,0.239 -0.422,1.411 -0.431,2.872 -0.01,1.461 0.589,7.725 0.612,9.026 0.027,1.438 -0.305,2.442 -0.446,3.59 -0.268,2.186 -0.948,3.688 -2.447,3.902 -0.23,0.033 -0.457,0.017 -0.674,-0.045 -0.218,-0.062 -0.426,-0.171 -0.618,-0.324 -0.887,-0.708 -1.359,-2.636 -1.815,-5.29 -0.455,-2.653 -0.893,-6.031 -1.256,-10.457 -0.213,-2.592 -0.517,-6.3 -0.955,-9.381 -0.437,-3.082 -1.008,-5.538 -1.752,-5.625 -0.562,0.411 -0.727,3.125 -0.714,6.566 0.014,3.441 0.207,7.609 0.362,10.928 0.099,2.156 -0.248,4.811 -0.185,6.636 0.152,4.386 0.61,7.158 0.409,9.691 -0.284,3.587 -1.022,5.357 -2.496,5.433 -1.457,0.075 -2.421,-1.338 -3.183,-3.954 -0.761,-2.617 -1.322,-6.436 -1.969,-11.175 -0.443,-3.238 -0.904,-7.949 -1.594,-10.995 -0.69,-3.046 -1.612,-4.427 -2.718,-4.502 -0.141,-0.01 -0.264,0.004 -0.376,0.043 -0.112,0.038 -0.212,0.102 -0.305,0.194 -0.63,0.61 -0.899,2.167 -0.991,4.073 -0.091,1.907 -0.006,4.162 0.069,6.173 0.091,2.425 -0.383,4.176 -0.512,6.019 -0.129,1.842 0.086,3.776 -0.68,4.531 -0.212,0.209 -0.453,0.365 -0.717,0.465 -0.264,0.099 -0.55,0.143 -0.85,0.128 -1.702,-0.088 -2.929,-0.797 -3.753,-2.791 -0.823,-1.994 -1.246,-5.272 -1.733,-7.687 -0.218,-1.077 -0.492,-2.429 -0.788,-3.543 -0.297,-1.114 -0.618,-1.989 -0.929,-2.113 -0.321,-0.045 -0.552,0.281 -0.735,0.831 -0.183,0.55 -0.68,0.83 -0.815,1.679 -0.146,0.916 0.072,2.3 -0.208,2.985 -0.281,0.685 -0.701,1.165 -1.402,1.258 -0.742,0.099 -1.295,-0.175 -1.728,-0.592 -0.433,-0.416 -0.748,-0.976 -1.013,-1.449 -0.22,-0.392 -0.41,-0.717 -0.595,-0.948 -0.185,-0.231 -0.366,-0.367 -0.566,-0.381 -0.87,-0.062 -3.927,0.563 -7.155,0.627 -3.068,0.06 -6.296,-0.377 -9.987,0.053 0.007,-0.51 0.014,-1.019 0.025,-1.526 3.735,-0.482 7.477,-0.683 10.542,-0.742 3.287,-0.064 5.366,0.151 6.253,0.215 0.619,0.044 1.513,0.22 1.886,0.621 0.373,0.4 0.364,1.433 0.614,1.879 0.258,0.459 1.312,0.785 1.526,0.757 0.157,-0.08 0.296,-0.5 0.412,-1.002 0.116,-0.503 0.209,-1.088 0.274,-1.497 0.153,-0.962 0.335,-2.103 0.749,-2.963 0.415,-0.861 1.061,-1.443 2.145,-1.288 0.815,0.117 1.954,0.625 2.394,1.826 0.44,1.202 0.183,3.097 0.57,5.016 0.391,1.933 0.854,4.224 1.499,6.045 0.646,1.822 1.474,3.174 2.594,3.232 0.093,0.005 0.17,-0.005 0.241,-0.032 0.071,-0.025 0.134,-0.069 0.198,-0.131 0.529,-0.523 0.753,-1.897 0.825,-3.632 0.072,-1.735 -0.007,-3.83 -0.08,-5.794 -0.093,-2.492 -0.184,-4.915 -0.034,-6.926 0.15,-2.011 0.541,-3.609 1.41,-4.453 0.246,-0.238 0.527,-0.415 0.835,-0.525 0.307,-0.111 0.641,-0.156 0.993,-0.131 1.599,0.109 2.672,1.731 3.519,4.614 0.618,2.101 1.1,3.708 1.597,7.05 0.186,1.244 0.389,3.729 0.58,5.126 0.379,2.772 0.855,6.252 1.446,9.028 0.592,2.776 1.301,4.849 2.144,4.806 0.89,-0.046 1.178,-3.463 1.205,-7.684 0.028,-4.221 -0.205,-9.246 -0.356,-12.508 -0.119,-2.55 0.046,-3.532 -0.019,-5.601 -0.07,-2.233 -0.364,-5.511 -0.32,-7.149 0.085,-3.156 0.432,-5.174 1.237,-5.923 0.16,-0.149 0.338,-0.257 0.527,-0.321 0.191,-0.064 0.393,-0.085 0.602,-0.06 1.289,0.151 2.091,1.756 2.673,4.567 0.313,1.514 0.219,4.044 0.447,6.219 0.195,1.864 0.718,3.29 0.906,5.587 0.25,3.026 0.528,6.422 0.92,9.2 0.39,2.779 0.894,4.94 1.591,5.497 0.042,0.033 0.071,0.048 0.093,0.055 0.023,0.006 0.038,0.004 0.051,0.002 0.821,-0.117 1.157,-1.698 1.263,-3.753 0.104,-2.056 -0.021,-4.585 -0.12,-6.6 -0.122,-2.467 -0.464,-5.374 -0.37,-6.821 0.095,-1.446 0.626,-1.432 1.211,-1.912 0.181,-0.149 0.387,-0.247 0.608,-0.293 0.221,-0.047 0.456,-0.041 0.696,0.019 1.115,0.279 1.819,1.189 2.31,2.368 0.489,1.18 0.764,2.63 1.023,3.989 0.185,0.97 0.382,2.004 0.636,2.78 0.254,0.775 0.566,1.291 0.981,1.225 0.511,-0.082 0.816,-0.283 1.027,-0.615 0.213,-0.333 0.332,-0.796 0.473,-1.403 0.136,-0.587 0.298,-1.281 0.684,-1.84 0.386,-0.559 1.484,-1.608 2.518,-1.651 C -6.699,-0.594 -3.648,0 0,0" /></g><g
         transform="translate(25.25,37.292)"
         id="g196"><path
           inkscape:connector-curvature="0"
           id="path198"
           style="fill:#bbbaba;fill-opacity:1;fill-rule:nonzero;stroke:none"
           d="M 0,0 C 0.202,-0.084 0.41,-0.164 0.613,-0.247 L 8.89,-3.424 c 0.406,-0.144 0.813,-0.286 1.22,-0.43 1.49,1.17 2.555,2.815 5.223,3.354 2.919,0.588 7.756,-0.15 11.651,-0.241 C 26.712,-0.117 26.542,0.545 26.5,1.25 26.417,2.626 26.226,4.252 26.017,6.044 22.461,5.686 17.432,5.478 12.833,5 7.427,4.437 2.625,3.5 -0.5,3 -2.076,2.748 -3.333,2.272 -4.329,1.651 l 4.38,-1.682 C 0.035,-0.021 0.017,-0.011 0,0" /></g><g
         transform="translate(122.917,31.458)"
         id="g200"><path
           inkscape:connector-curvature="0"
           id="path202"
           style="fill:#bbbaba;fill-opacity:1;fill-rule:nonzero;stroke:none"
           d="m 0,0 c -2.625,1 -8.604,3.584 -15.979,5.708 -6.099,1.757 -13.507,4.876 -15.894,5.905 0.093,-1.257 0.173,-2.377 0.206,-3.279 0.156,-4.3 -3.107,-8.352 -8.333,-10 -3.13,-0.988 -7.262,-0.411 -10.948,-0.469 -4.312,-0.069 -8.653,0.493 -12.202,1.67 -3.255,1.08 -5.837,2.68 -7.126,4.786 -3.184,-0.044 -6.077,-0.32 -8.578,-0.823 -2.631,-0.531 -4.848,-1.298 -6.578,-2.265 1.484,-0.509 2.97,-1.007 4.453,-1.493 2.812,-0.922 5.609,-1.805 8.343,-2.66 2.735,-0.856 5.407,-1.684 7.969,-2.496 2.25,-0.063 6.469,0.062 11.766,0.265 5.297,0.203 11.672,0.485 18.234,0.735 6.563,0.25 13.621,1.338 19.667,1.416 5.633,0.074 10.375,-0.725 14.031,-1.088 l 6.353,0.252 C 4.569,-2.137 2.193,-0.834 0,0" /></g><g
         transform="translate(33.5,34.092)"
         id="g204"><path
           inkscape:connector-curvature="0"
           id="path206"
           style="fill:#bbbaba;fill-opacity:1;fill-rule:nonzero;stroke:none"
           d="M 0,0 C 0.213,-0.077 0.427,-0.15 0.64,-0.224 L -7.637,2.953 C -5.141,1.921 -2.587,0.936 0,0" /></g><g
         transform="translate(18.688,36.76)"
         id="g208"><path
           inkscape:connector-curvature="0"
           id="path210"
           style="fill:#a09d9e;fill-opacity:1;fill-rule:nonzero;stroke:none"
           d="m 0,0 c -1.063,-1.656 -1.313,-3.594 -1.188,-5.218 4.288,-1.75 9.248,-4.052 14.207,-6.401 -0.512,1.332 -0.603,2.586 -0.3,3.736 0.369,1.402 1.312,2.654 2.757,3.719 -0.075,0.033 -0.151,0.068 -0.218,0.098 -3.113,1.417 -6.093,2.953 -8.645,4.567 L 2.233,2.183 C 1.254,1.572 0.526,0.822 0,0" /></g><g
         transform="translate(110.376,26.366)"
         id="g212"><path
           inkscape:connector-curvature="0"
           id="path214"
           style="fill:#a09d9e;fill-opacity:1;fill-rule:nonzero;stroke:none"
           d="m 0,0 c -5.219,-0.348 -11.313,-0.715 -17.626,-1.043 -6.312,-0.328 -12.74,-1.34 -18.833,-1.531 -5.77,-0.182 -11.226,0.367 -15.664,0.479 -1.044,-2.187 -2.466,-5.522 -2.253,-7.229 -1.52,2.17 -0.589,5.657 0.501,7.521 -1.173,0.326 -2.75,0.79 -4.603,1.373 -2.049,0.645 -11.069,3.953 -15.782,5.847 -1.375,-1.124 -2.169,-2.61 -2.533,-3.991 -0.317,-1.208 -0.309,-2.334 0.222,-3.646 1.422,-0.676 2.837,-1.351 4.226,-2.011 6.907,-3.281 13.219,-6.219 16.969,-7.343 5.227,0.254 8.331,0.133 15.417,0.666 6.811,0.513 17.565,1.673 24.458,2.24 4.839,0.397 11.669,0.42 15.875,0.76 8.019,0.652 12.213,1.501 15,1.584 2,1.874 3,4.312 2.844,6.531 -0.025,0.365 -0.132,0.715 -0.293,1.049 L 11.572,1.004 C 11.84,0.977 12.118,0.947 12.374,0.926 9.562,0.676 5.218,0.347 0,0" /></g></g></g></svg>