<?xml version="1.0" encoding="UTF-8" standalone="no"?>
<!-- Created with Inkscape (http://www.inkscape.org/) -->

<svg
   xmlns:dc="http://purl.org/dc/elements/1.1/"
   xmlns:cc="http://creativecommons.org/ns#"
   xmlns:rdf="http://www.w3.org/1999/02/22-rdf-syntax-ns#"
   xmlns:svg="http://www.w3.org/2000/svg"
   xmlns="http://www.w3.org/2000/svg"
   xmlns:sodipodi="http://sodipodi.sourceforge.net/DTD/sodipodi-0.dtd"
   xmlns:inkscape="http://www.inkscape.org/namespaces/inkscape"
   version="1.1"
   id="svg2"
   xml:space="preserve"
   width="600"
   height="600"
   viewBox="0 0 600.00001 600"
   sodipodi:docname="SVG Pearl Krabs.svg"
   inkscape:version="0.92.2 5c3e80d, 2017-08-06"><metadata
     id="metadata8"><rdf:RDF><cc:Work
         rdf:about=""><dc:format>image/svg+xml</dc:format><dc:type
           rdf:resource="http://purl.org/dc/dcmitype/StillImage" /><dc:title /></cc:Work></rdf:RDF></metadata><defs
     id="defs6" /><sodipodi:namedview
     pagecolor="#ffffff"
     bordercolor="#666666"
     borderopacity="1"
     objecttolerance="10"
     gridtolerance="10"
     guidetolerance="10"
     inkscape:pageopacity="0"
     inkscape:pageshadow="2"
     inkscape:window-width="1440"
     inkscape:window-height="772"
     id="namedview4"
     showgrid="false"
     inkscape:zoom="0.75"
     inkscape:cx="-13.428853"
     inkscape:cy="288.6949"
     inkscape:window-x="0"
     inkscape:window-y="0"
     inkscape:window-maximized="0"
     inkscape:current-layer="g10" /><g
     id="g10"
     inkscape:groupmode="layer"
     inkscape:label="SB_MAINCHAR9_PEARL"
     transform="matrix(1.3333333,0,0,-1.3333333,0,600)"><g
       id="MAIN_CHARACTER_9"
       transform="matrix(1.7627321,0,0,1.7627322,-917.38966,-509.00577)"
       inkscape:label="SB_MAINCHAR9_PEARL"
       sodipodi:insensitive="true"><title
         id="title168">Pearl</title><g
         transform="translate(717.698,481.914)"
         id="g12"><path
           inkscape:connector-curvature="0"
           id="path14"
           style="fill:#ff2a7f;fill-opacity:1;fill-rule:nonzero;stroke:none"
           d="M 0,0 -0.378,0.567 C -0.255,0.653 0.171,1.329 0.251,2.273 0.306,2.934 0.198,3.89 -0.635,4.7 -2.292,6.309 -4.661,5.52 -4.685,5.512 L -4.908,6.156 C -4.794,6.196 -2.12,7.092 -0.161,5.189 0.873,4.184 1.001,3 0.927,2.185 0.832,1.154 0.372,0.249 0,0" /></g><g
         transform="translate(602.859,532.103)"
         id="g16"><path
           inkscape:connector-curvature="0"
           id="path18"
           style="fill:#c5cec1;fill-opacity:1;fill-rule:nonzero;stroke:none"
           d="M 0,0 C 2.704,0.118 4.615,-0.976 5.646,-1.79 1.602,-1.947 -2.308,-2.241 -5.997,-2.62 -5.375,-1.644 -3.813,-0.166 0,0" /></g><g
         transform="matrix(1.0647707,0,0,1.0774993,583.32702,438.94068)"
         id="g20"><path
           inkscape:connector-curvature="0"
           id="path22"
           style="fill:#ee2049;fill-opacity:1;fill-rule:nonzero;stroke:none"
           d="m 0,0 c -0.79,0.746 -4.252,4.23 -4.493,8.14 -0.134,2.151 0.641,3.626 2.124,4.049 1.662,0.468 4.089,-0.385 5.616,-3.226 L 3.458,8.57 3.781,8.877 c 0.055,0.05 5.207,4.875 8.767,2.174 1.236,-0.939 1.86,-2.106 1.671,-3.876 C 13.937,4.531 11.637,0.569 6.108,-1.985 3.941,-1.326 1.9,-0.658 0,0" /></g><g
         transform="translate(623.079,362.132)"
         id="g24"><path
           inkscape:connector-curvature="0"
           id="path26"
           style="fill:#f68aca;fill-opacity:1;fill-rule:nonzero;stroke:none"
           d="M 0,0 C 0.181,1.987 1.235,3.735 2.749,4.56 5.726,6.186 7.369,4.781 7.816,4.295 7.714,3.102 7.634,2.26 7.587,1.93 L 7.592,1.929 6.792,-5.183 C 6.262,-5.356 3.765,-6.025 1.44,-4.141 0.38,-3.281 -0.158,-1.734 0,0" /></g><g
         transform="translate(617.362,349.585)"
         id="g28"><path
           inkscape:connector-curvature="0"
           id="path30"
           style="fill:#c5cec1;fill-opacity:1;fill-rule:nonzero;stroke:none"
           d="M 0,0 C 0.22,0.658 2.804,0.819 4.693,0.682 6.209,0.198 6.658,0.422 6.658,0.422 4.492,1.335 -3.583,5.551 -3.87,6.435 -3.566,7.228 2.642,10.158 4.835,11.088 4.935,10.18 5.222,9.353 5.666,8.67 0.421,6.58 0.361,5.331 0.361,5.331 0.429,5.392 0.566,5.48 0.747,5.583 1.05,5.432 6.889,1.97 11.769,0.782 l -0.155,-1.39 C 9.999,-1.74 7.087,-1.903 4.736,-2.03 4.144,-2.062 3.594,-2.092 3.089,-2.133 1.72,-1.617 -0.216,-0.649 0,0" /></g><g
         transform="translate(634.729,320.915)"
         id="g32"><path
           inkscape:connector-curvature="0"
           id="path34"
           style="fill:#c5cec1;fill-opacity:1;fill-rule:nonzero;stroke:none"
           d="M 0,0 C -0.509,1.786 -0.971,3.478 -1.241,4.5 -0.134,3.714 1.194,2.976 2.652,2.4 2.83,0.153 3.346,-6.05 3.353,-6.527 2.765,-6.607 2.177,-6.594 1.667,-6.55 1.609,-6.109 1.31,-4.591 0,0" /></g><g
         transform="translate(639.443,314.801)"
         id="g36"><path
           inkscape:connector-curvature="0"
           id="path38"
           style="fill:#ffffff;fill-opacity:1;fill-rule:nonzero;stroke:none"
           d="M 0,0 C -0.23,-0.125 -0.483,-0.216 -0.744,-0.287 -0.742,-0.191 -0.752,0.08 -0.771,0.492 -0.345,0.428 0.528,0.126 0.683,-0.56 0.826,-1.194 0.506,-14.071 0.524,-14.637 c -0.194,-0.005 -0.455,-0.019 -0.815,-0.039 -0.663,2.553 -0.777,2.621 -0.909,2.698 -0.234,0.142 -0.347,0.052 -0.971,-0.448 -0.93,-0.745 -3.117,-2.488 -4.241,-2.197 -1.462,0.379 -3.252,2.357 -3.41,3.461 -0.083,0.58 0.091,1.184 0.464,1.613 0.225,0.259 0.49,0.414 0.712,0.414 0.699,0 1.598,-0.835 2.32,-1.505 0.74,-0.69 1.276,-1.188 1.785,-1.12 0.901,0.121 2.715,1.964 2.764,2.483 0.043,0.485 -3.244,7.927 -3.46,8.36 -0.072,0.144 -0.077,0.281 -0.013,0.42 0.091,0.199 0.407,0.562 1.434,0.87 0.103,-0.345 0.18,-0.605 0.219,-0.748 -0.485,0.069 -0.816,0.148 -0.816,0.148 C -1.65,-1.959 0,0 0,0" /></g><g
         transform="translate(647.574,318.057)"
         id="g40"><path
           inkscape:connector-curvature="0"
           id="path42"
           style="fill:#ffffff;fill-opacity:1;fill-rule:nonzero;stroke:none"
           d="m 0,0 c 3.856,-5.242 9.377,-9.326 10.01,-9.786 -0.021,-0.193 -0.322,-0.651 -0.408,-0.711 -0.148,0.03 -0.725,0.382 -1.108,0.615 -1.22,0.745 -1.646,0.968 -1.958,0.764 -0.292,-0.194 -0.263,-0.637 -0.198,-1.705 0.057,-0.92 0.135,-2.18 -0.045,-3.253 -0.083,-0.496 -0.431,-0.936 -0.982,-1.235 -0.905,-0.494 -2.142,-0.506 -3.228,-0.037 -0.977,0.422 -1.88,1.319 -2.194,2.181 -0.096,0.26 -0.177,0.633 -0.025,0.937 0.172,0.345 1.191,0.284 1.933,0.242 1.024,-0.061 1.99,-0.118 2.238,0.557 0.009,0.022 0.69,2.41 0.112,2.985 -0.446,0.445 -6.373,2.402 -7.79,2.811 -0.648,0.187 -0.687,1.532 -0.516,2.728 0.512,-0.314 1.04,-0.628 1.546,-0.929 -0.412,-0.167 -0.695,-0.167 -0.695,-0.167 2.962,-0.43 3.105,3.152 3.105,3.152 -0.131,-0.376 -0.275,-0.706 -0.428,-0.998 -0.226,0.18 -0.828,0.775 -1.388,1.349 C -1.262,-0.073 -0.178,0.165 0,0" /></g><g
         transform="translate(643.693,317.206)"
         id="g44"><path
           inkscape:connector-curvature="0"
           id="path46"
           style="fill:#c5cec1;fill-opacity:1;fill-rule:nonzero;stroke:none"
           d="M 0,0 C 0,0 0.196,0.261 0.537,0.7 1.004,0.235 2.499,-1.125 2.983,-1.461 2.621,-2.026 2.233,-2.398 1.875,-2.647 -0.077,-1.474 -2.429,0.164 -2.574,0.517 -2.504,0.995 -0.534,3.604 0.53,5.004 1.58,5.082 2.616,5.271 3.624,5.568 1.757,3.452 0.077,1.231 0,0" /></g><g
         transform="translate(643.939,323.233)"
         id="g48"><path
           inkscape:connector-curvature="0"
           id="path50"
           style="fill:#f68aca;fill-opacity:1;fill-rule:nonzero;stroke:none"
           d="m 0,0 c -4.222,-0.193 -8.832,1.665 -11.234,3.757 0.717,0.087 1.436,0.192 2.115,0.293 0.922,0.137 1.717,0.255 2.285,0.289 1.471,0.111 2.376,-0.606 3.52,-1.673 0.412,-0.384 0.838,-0.782 1.286,-1.128 0.917,-0.708 1.731,-0.823 2.534,-0.823 0.778,0.001 1.564,0.4 2.389,1.059 l 0.363,0.29 C 5.842,4.133 7.118,4.822 8.942,4.176 6.743,1.6 3.424,0.152 0,0" /></g><g
         transform="translate(668.098,332.011)"
         id="g52"><path
           inkscape:connector-curvature="0"
           id="path54"
           style="fill:#b91a94;fill-opacity:1;fill-rule:nonzero;stroke:none"
           d="m 0,0 c -0.054,-0.169 -0.152,-0.282 -0.307,-0.355 -0.801,-0.383 -2.67,0.333 -3.672,0.716 -0.34,0.129 -0.616,0.233 -0.79,0.28 -0.876,0.238 -1.481,0.365 -1.882,0.001 -0.382,-0.346 -0.304,-0.766 -0.152,-1.68 0.062,-0.375 1.243,-4.179 -0.198,-4.576 -1.485,-0.409 -5.473,0.977 -7.447,1.688 l -0.423,0.153 c -2.6,0.917 -3.86,0.121 -6.503,-1.995 l -0.362,-0.289 c -1.385,-1.105 -2.462,-1.765 -3.969,-0.599 -0.42,0.323 -0.832,0.708 -1.231,1.08 -1.216,1.135 -2.471,2.296 -4.288,2.198 -0.602,-0.037 -1.413,-0.158 -2.353,-0.298 -2.502,-0.37 -6.283,-0.932 -7.211,0.158 -0.793,0.931 -0.771,2.264 -0.747,3.675 0.004,0.341 0.007,1.236 0.013,1.346 0.051,1.097 -0.126,2.103 -2.805,2.347 -1.742,0.157 -6.366,0.578 -6.568,1.726 -0.182,1.034 1.453,1.983 2.452,2.728 2.198,1.639 2.176,2.181 1.986,2.946 -0.131,0.526 -0.774,0.912 -0.967,1.015 -0.332,0.152 -2.639,1.246 -2.493,1.725 0.169,0.557 2.182,0.664 3.959,0.761 2.488,0.133 5.278,0.298 7.088,1.44 1.389,-1.927 7.868,-9.838 20.584,-9.838 2.434,0 5.182,0.371 8.087,1.028 0.089,0.021 0.363,0.057 1.247,1.339 C -4.449,5.137 0.17,0.866 0,0" /></g><g
         transform="translate(657.664,340.038)"
         id="g56"><path
           inkscape:connector-curvature="0"
           id="path58"
           style="fill:#f68aca;fill-opacity:1;fill-rule:nonzero;stroke:none"
           d="m 0,0 c -18.725,-4.195 -27.217,7.554 -28.023,8.749 l 1.904,14.539 C -23.734,20.962 -13.238,12.004 5.082,15.854 5.341,15.226 5.68,14.625 6.152,14.093 6.422,13.789 6.718,13.521 7.028,13.277 4.524,8.319 0.625,0.77 0,0" /></g><g
         transform="translate(697.67,382.764)"
         id="g60"><path
           inkscape:connector-curvature="0"
           id="path62"
           style="fill:#c5cec1;fill-opacity:1;fill-rule:nonzero;stroke:none"
           d="m 0,0 c 0.219,0.261 -2.743,3.915 -2.92,4.146 -0.198,0.255 -0.469,0.84 -0.263,1.228 0.253,0.477 0.91,0.674 1.812,0.65 2.912,-0.078 3.273,-5.309 3.273,-5.309 0,0 6.912,0.559 10.399,-2.305 2.041,-1.68 2.302,-3.903 1.869,-5.424 C 13.82,-8.231 13.019,-9.065 12.08,-9.187 9.594,-9.51 6.416,-6.5 4.71,-4.88 c -0.53,0.504 -0.881,0.837 -1.107,0.979 -0.896,0.55 -14.902,-8.076 -26.6,-15.478 -0.095,0.118 -0.189,0.239 -0.293,0.354 -0.154,0.167 -0.313,0.325 -0.476,0.472 C -21.426,-16.791 -1.382,-1.662 0,0" /></g><g
         transform="translate(673.795,363.202)"
         id="g64"><path
           inkscape:connector-curvature="0"
           id="path66"
           style="fill:#f68aca;fill-opacity:1;fill-rule:nonzero;stroke:none"
           d="m 0,0 c 1.121,-1.224 1.628,-2.691 1.466,-4.242 -0.185,-1.764 -1.265,-3.591 -2.751,-4.654 -1.263,-0.902 -2.656,-1.379 -4.03,-1.379 -1.618,0 -3.05,0.651 -4.145,1.881 -2.03,2.282 -1.71,5.708 0.776,8.332 0.721,0.758 2.557,1.888 4.669,1.888 C -2.463,1.826 -1.112,1.211 0,0" /></g><g
         transform="translate(670.351,365.793)"
         id="g68"><path
           inkscape:connector-curvature="0"
           id="path70"
           style="fill:#c5cec1;fill-opacity:1;fill-rule:nonzero;stroke:none"
           d="m 0,0 c -0.188,0.018 -0.378,0.03 -0.571,0.03 -2.114,0 -4.239,-1.075 -5.245,-2.136 -2.02,-2.131 -2.688,-4.83 -2.026,-7.147 -18.793,-3.903 -29.321,5.958 -30.917,7.601 0.4,3.126 2.385,24.157 2.711,30.169 4.591,-6.57 10.48,-9.684 17.58,-9.684 1.709,0 3.496,0.19 5.365,0.569 4.854,0.983 9.373,4.059 12.902,7.388 9.18,8.659 10.604,14.863 10.604,14.863 -0.1,-0.182 -9.957,-18.189 -23.596,-20.954 -11.156,-2.255 -19.391,2.978 -25.046,14.868 -5.471,11.505 -5.966,23.562 -5.978,27.31 0.77,-0.016 1.547,-0.018 2.324,-0.018 0.128,-4.99 1.112,-21.141 8.413,-30.227 3.984,-4.958 8.427,-8.245 13.465,-8.638 0.409,-0.031 0.818,-0.047 1.232,-0.047 5.188,0.001 10.836,2.455 16.047,7.313 13.477,12.568 19.672,31.337 20.582,47.238 1.295,-0.917 2.693,-2.052 4.125,-3.46 0,0 -2.303,6.389 -11.152,7.017 0,0 1.265,-0.304 3.234,-1.28 -3.236,-2.246 -23.657,-15.524 -53.582,-15.952 -14.826,-0.213 -29.056,2.759 -40.199,6.075 5.689,2.846 7.707,6.897 8.012,9.745 0.215,2.022 -0.643,3.58 -2.096,4.651 -3.312,2.441 -7.644,-0.592 -9.271,-2.091 -1.713,2.87 -4.395,3.861 -6.235,3.335 -1.792,-0.509 -2.941,-2.687 -2.789,-5.149 0.199,-3.224 2.42,-6.143 3.844,-7.701 -7.691,2.742 -12.756,5.174 -13.722,5.649 -0.772,2.403 -8.897,29.724 3.107,77.852 2.298,1.264 36.37,8.804 66.849,3.993 C -30.247,160.9 1.32,144.615 22.666,129 c 0.133,-1.347 0.399,-2.724 0.762,-3.931 1.127,-3.727 4.326,-10.933 6.785,-10.744 0.5,0.038 0.975,0.736 1.2,1.689 0.357,-0.721 0.841,-1.699 1.638,-2.587 0.149,-0.166 0.297,-0.317 0.446,-0.463 -0.191,-1.119 -0.394,-3.926 1.635,-7.058 1.788,-2.758 4.132,-3.694 6.019,-3.946 C 39.981,98.205 23.549,51.729 0,0" /></g><g
         transform="translate(690.689,442.329)"
         id="g72"><path
           inkscape:connector-curvature="0"
           id="path74"
           style="fill:#e9e8e8;fill-opacity:1;fill-rule:nonzero;stroke:none"
           d="m 0,0 c -0.858,0.741 -1.695,1.398 -2.492,1.962 -0.91,-15.901 -7.105,-34.67 -20.582,-47.238 -5.211,-4.858 -10.859,-7.312 -16.047,-7.313 -0.414,0 -0.823,0.016 -1.232,0.047 -5.038,0.393 -9.481,3.68 -13.465,8.638 -3.211,3.995 -5.2,9.359 -6.432,14.537 -0.197,-0.104 -0.491,11.096 -1.593,15.901 -0.752,3.287 -2.427,0.779 -2.556,0.71 -0.38,-0.204 -1.136,-8.237 0.853,-15.905 0.871,-3.377 3.291,-8.778 4.969,-12.308 5.655,-11.89 13.89,-17.123 25.046,-14.868 13.639,2.765 23.496,20.772 23.596,20.954 0,0 -1.424,-6.204 -10.604,-14.863 -3.529,-3.329 -8.048,-6.405 -12.902,-7.388 -1.869,-0.379 -3.656,-0.569 -5.365,-0.569 -7.1,0 -12.989,3.114 -17.58,9.684 -0.326,-6.012 -2.311,-27.043 -2.711,-30.169 1.399,-1.441 9.668,-9.198 24.352,-8.456 29.15,42.269 35.234,83.638 35.842,85.609 L 0,0" /></g><g
         transform="translate(645.726,392.476)"
         id="g76"><path
           inkscape:connector-curvature="0"
           id="path78"
           style="fill:#ffffff;fill-opacity:1;fill-rule:nonzero;stroke:none"
           d="m 0,0 c -2.922,1.245 -5.652,3.413 -8.147,6.519 l -0.071,0.095 c -0.518,2.021 -3.666,14.913 -3.766,29.645 3.555,0.143 6.96,0.477 10.213,0.955 C -2.558,24.74 -0.455,4.237 0,0" /></g><g
         transform="translate(659.343,393.041)"
         id="g80"><path
           inkscape:connector-curvature="0"
           id="path82"
           style="fill:#ffffff;fill-opacity:1;fill-rule:nonzero;stroke:none"
           d="m 0,0 c -2.99,-1.383 -5.958,-1.992 -8.805,-1.773 -1.381,0.108 -2.722,0.424 -4.03,0.901 -0.295,3.205 -2.209,24.771 -1.432,37.692 4.762,0.758 9.184,1.818 13.211,3.047 C -2.318,27.943 -0.277,3.259 0,0" /></g><g
         transform="translate(671.282,402.762)"
         id="g84"><path
           inkscape:connector-curvature="0"
           id="path86"
           style="fill:#ffffff;fill-opacity:1;fill-rule:nonzero;stroke:none"
           d="m 0,0 c -1.331,-1.589 -2.743,-3.095 -4.258,-4.473 -2.298,-2.094 -4.633,-3.729 -6.96,-4.9 -0.294,4.223 -1.876,28.287 -0.632,39.883 5.172,1.647 9.675,3.545 13.416,5.378 C 1.237,30.36 0.05,2.998 0,0" /></g><g
         transform="translate(673.977,439.209)"
         id="g88"><path
           inkscape:connector-curvature="0"
           id="path90"
           style="fill:#ffffff;fill-opacity:1;fill-rule:nonzero;stroke:none"
           d="M 0,0 C 4.58,2.322 7.89,4.468 9.761,5.775 9.808,3.37 9.898,-4.608 9.244,-14.027 6.726,-21.657 3.066,-29.233 -1.922,-35.493 -1.68,-29.766 -0.344,-5.045 0,0" /></g><g
         transform="translate(636.238,400.865)"
         id="g92"><path
           inkscape:connector-curvature="0"
           id="path94"
           style="fill:#ffffff;fill-opacity:1;fill-rule:nonzero;stroke:none"
           d="m 0,0 c -5.805,8.975 -6.721,23.186 -6.863,27.785 0.117,0.001 0.234,-0.003 0.354,-0.001 0.5,0 1.007,0.003 1.509,0.011 0.425,0.005 0.84,0.025 1.26,0.038 C -3.687,15.456 -1.197,4.544 0,0" /></g><g
         transform="translate(684.484,445.513)"
         id="g96"><path
           inkscape:connector-curvature="0"
           id="path98"
           style="fill:#ffffff;fill-opacity:1;fill-rule:nonzero;stroke:none"
           d="M 0,0 C 0.371,0.27 0.633,0.467 0.803,0.598 1.446,0.249 2.145,-0.169 2.884,-0.657 2.418,-5.745 1.374,-11.474 -0.316,-17.286 0.342,-8.378 0.108,-2.036 0,0" /></g><g
         transform="translate(717.166,465.803)"
         id="g100"><path
           inkscape:connector-curvature="0"
           id="path102"
           style="fill:#fcd006;fill-opacity:1;fill-rule:nonzero;stroke:none"
           d="m 0,0 c -1.189,-3.103 -4.659,-3.649 -6.443,-3.72 0.988,3.062 1.56,4.988 1.708,5.598 1.37,-0.04 2.331,0.234 2.331,0.234 -0.157,-0.019 -5.036,-0.006 -8.119,4.37 -1.607,2.279 -1.889,4.435 -1.887,5.683 2.275,-1.728 4.174,-1.363 4.174,-1.363 -3.325,0.809 -5.988,4.943 -7.066,6.865 -0.016,0.165 -0.031,0.332 -0.065,0.499 -0.518,2.521 -1.342,3.287 -1.342,3.287 0,-0.191 1.674,-5.564 0.126,-6.019 -0.884,-0.26 -4.133,4.864 -5.704,10.065 -1.217,4.029 -0.933,7.826 0.125,8.405 0.262,0.144 0.6,0.137 1.027,-0.022 3.136,-1.154 9.079,-10.139 9.725,-11.833 0,0 0.079,0.341 -0.074,1.09 0.799,0.058 6.146,0.234 9.978,-4.876 C 2.572,12.826 1.627,4.251 0,0" /></g><g
         style="fill:#ffaaee"
         transform="translate(713.684,487.569)"
         id="g104"><path
           inkscape:connector-curvature="0"
           id="path106"
           style="fill:#ffaaee;fill-opacity:1;fill-rule:nonzero;stroke:none"
           d="M 0,0 C 0.827,0.122 2.257,0.133 3.379,-0.955 4.212,-1.765 4.32,-2.721 4.265,-3.382 4.222,-3.877 4.087,-4.29 3.949,-4.592 3.617,-3.954 3.252,-3.337 2.822,-2.764 1.944,-1.593 0.981,-0.697 0,0" /></g><g
         transform="translate(725.514,463.702)"
         id="g108"><path
           inkscape:connector-curvature="0"
           id="path110"
           style="fill:#fcd006;fill-opacity:1;fill-rule:nonzero;stroke:none"
           d="m 0,0 c -1.21,-0.376 -2.425,0.193 -3.338,1.564 -2.197,3.295 -0.726,7.392 0.571,11.005 0.142,0.392 0.278,0.776 0.411,1.153 1.016,2.924 0.074,4.619 -0.611,5.394 0.377,0.411 0.69,0.622 1.349,0.636 0,0 -0.881,1.328 -2.574,-0.665 -0.215,-0.255 -0.472,-0.543 -0.787,-0.877 -0.861,-0.912 -1.644,-0.95 -2.049,-0.889 -0.146,0.412 -0.31,0.816 -0.488,1.212 0.285,0.41 0.557,1.101 0.627,1.864 0.074,0.815 -0.054,1.999 -1.088,3.004 -1.788,1.737 -4.166,1.143 -4.655,0.996 -0.487,0.291 -0.972,0.524 -1.452,0.729 0.14,0.679 0.841,2.649 2.539,4.548 1.338,1.495 3.677,3.31 7.217,3.468 C 4.09,33.494 5.942,26.104 6.348,22.9 7.107,16.9 3.144,12.514 1.015,10.157 -0.468,8.514 -1.256,6.669 -1.307,4.868 -1.38,2.225 0.135,1.467 0.135,1.467 -0.035,1.795 -0.17,2.132 -0.285,2.475 0.521,2.222 1.431,2.164 2.599,3.285 2.144,1.447 1.074,0.335 0,0" /></g><g
         transform="translate(648.748,347.565)"
         id="g112"><path
           inkscape:connector-curvature="0"
           id="path114"
           style="fill:#b91a94;fill-opacity:1;fill-rule:nonzero;stroke:none"
           d="m 0,0 c -0.672,-1.692 -2.534,-1.944 -3.584,-1.944 -0.92,0 -1.747,0.185 -2.213,0.358 -1.456,0.54 -6.074,2.33 -6.074,2.33 l -0.277,0.107 -0.095,-0.283 c -0.103,-0.307 -0.174,-0.851 -0.249,-1.427 -0.07,-0.527 -0.183,-1.383 -0.307,-1.649 -0.351,0.11 -1.394,0.681 -2.303,1.23 0.064,1.399 1.213,9.333 1.556,10.775 1.292,-0.396 7.343,-2.352 9.8,-3.73 C -0.194,3.775 0.856,2.158 0,0" /></g><g
         transform="translate(685.876,470.245)"
         id="g116"><path
           inkscape:connector-curvature="0"
           id="path118"
           style="fill:#ffffff;fill-opacity:1;fill-rule:nonzero;stroke:none"
           d="m 0,0 c 0.853,-2.266 1.6,-6.743 -3.282,-15.634 -2.81,0.588 -6.545,0.896 -10.271,-0.199 -0.159,1.362 -0.756,7.765 1.346,13.019 2.337,5.839 7.492,6.489 9.757,5.675 C -1.456,2.505 -0.542,1.436 0,0" /></g><g
         transform="translate(644.681,349.267)"
         id="g120"><path
           inkscape:connector-curvature="0"
           id="path122"
           style="fill:#f68aca;fill-opacity:1;fill-rule:nonzero;stroke:none"
           d="m 0,0 c -0.255,-0.346 -0.777,-0.526 -1.374,-0.444 -1.442,0.199 -5.585,1.746 -5.502,2.468 0.033,0.294 0.204,1.212 0.995,1.212 h 0.004 C -4.668,3.194 -0.16,1.015 0.105,0.48 0.153,0.329 0.116,0.158 0,0" /></g><g
         transform="translate(619.962,434.885)"
         id="g124"><path
           inkscape:connector-curvature="0"
           id="path126"
           style="fill:#231f20;fill-opacity:1;fill-rule:nonzero;stroke:none"
           d="M 0,0 C 0,0 -2.835,39.449 17.48,88.583 17.48,88.583 -4.464,51.775 0,0" /></g><g
         transform="translate(724.207,468.57)"
         id="g132"><path
           inkscape:connector-curvature="0"
           id="path134"
           style="fill:#ce6111;fill-opacity:1;fill-rule:nonzero;stroke:none"
           d="m 0,0 c 0.051,1.801 0.839,3.646 2.322,5.289 2.129,2.357 6.092,6.743 5.333,12.743 -0.406,3.204 -2.258,10.594 -10.676,10.242 -3.54,-0.158 -5.879,-1.973 -7.217,-3.468 -1.953,-2.184 -2.588,-4.466 -2.569,-4.766 l -0.89,-0.176 c -0.139,0.625 0.607,3.254 2.125,5.236 1.504,1.966 4.402,4.118 8.692,4.308 C 6.3,29.839 8.365,21.898 8.803,18.445 9.615,12.031 5.143,7.216 2.996,4.68 0.313,1.507 0.25,-1.102 1.442,-3.401 1.442,-3.401 -0.073,-2.643 0,0" /></g><g
         transform="translate(718.773,480.075)"
         id="g136"><path
           inkscape:connector-curvature="0"
           id="path138"
           style="fill:#ce6111;fill-opacity:1;fill-rule:nonzero;stroke:none"
           d="m 0,0 c -0.51,0 -0.877,0.282 -0.908,0.296 l 0.336,0.721 -0.005,0.002 C -0.533,1 0.545,0.549 1.762,1.837 2.077,2.171 2.334,2.459 2.549,2.714 4.242,4.707 5.123,3.379 5.123,3.379 4.165,3.359 3.94,2.933 3.181,2.059 2.956,1.801 2.695,1.502 2.372,1.159 1.483,0.218 0.615,0 0,0" /></g><g
         transform="translate(724.789,462.794)"
         id="g140"><path
           inkscape:connector-curvature="0"
           id="path142"
           style="fill:#ce6111;fill-opacity:1;fill-rule:nonzero;stroke:none"
           d="m 0,0 c -1.221,0 -2.398,0.715 -3.274,2.03 -2.419,3.629 -0.876,7.925 0.485,11.716 0.139,0.389 0.275,0.771 0.405,1.145 1.234,3.547 -0.775,4.925 -0.862,4.982 l 0.434,0.668 C -2.705,20.472 -0.185,18.792 -1.631,14.63 -1.764,14.253 -1.9,13.869 -2.042,13.477 -3.339,9.864 -4.81,5.767 -2.613,2.472 -1.7,1.101 -0.485,0.532 0.725,0.908 1.799,1.243 2.869,2.355 3.324,4.193 2.011,2.933 1.022,3.162 0.141,3.483 l 0.051,0.835 c 2.453,-1.85 3.835,2.136 3.839,2.152 0,0 0.687,-5.112 -3.07,-6.321 C 0.641,0.046 0.318,0 0,0" /></g><g
         transform="translate(709.664,460.823)"
         id="g144"><path
           inkscape:connector-curvature="0"
           id="path146"
           style="fill:#ce6111;fill-opacity:1;fill-rule:nonzero;stroke:none"
           d="M 0,0 C -0.454,0 -0.064,0.361 -0.118,0.366 L -0.03,1.27 C 0.031,1.266 5.884,0.758 7.502,4.98 9.129,9.231 10.074,17.806 5.996,23.243 1.867,28.749 -4.029,28.118 -4.091,28.111 l -0.397,0.851 c 0.263,0.039 6.879,0.955 11.33,-4.98 C 11.139,18.253 10.299,8.873 8.602,4.441 7.107,0.543 1.818,0 0,0" /></g><g
         transform="translate(703.402,479.22)"
         id="g148"><path
           inkscape:connector-curvature="0"
           id="path150"
           style="fill:#ce6111;fill-opacity:1;fill-rule:nonzero;stroke:none"
           d="M 0,0 C -1.006,1.121 -1.52,2.405 -1.903,3.104 -2.168,3.589 -2.06,5.239 -2.06,5.239 -2.042,5.194 1.182,-1.557 5.528,-2.615 5.528,-2.615 2.824,-3.146 0,0" /></g><g
         transform="translate(671.307,365.242)"
         id="g152"><path
           inkscape:connector-curvature="0"
           id="path154"
           style="fill:#231f20;fill-opacity:1;fill-rule:nonzero;stroke:none"
           d="M 0,0 -1.059,0.326 C 23.292,53.781 40.056,101.689 40.26,102.738 l 0.902,-0.11 C 41.033,101.35 26.714,55.364 0,0" /></g><g
         transform="translate(631.565,363.934)"
         id="g156"><path
           inkscape:connector-curvature="0"
           id="path158"
           style="fill:#231f20;fill-opacity:1;fill-rule:nonzero;stroke:none"
           d="M 0,0 -0.899,0.128 C -0.55,2.569 1.562,32.345 1.374,33.843 L 2.773,31.914 C 2.976,30.286 0.375,2.624 0,0" /></g><g
         transform="translate(651.883,384.626)"
         id="g160"><path
           inkscape:connector-curvature="0"
           id="path162"
           style="fill:#231f20;fill-opacity:1;fill-rule:nonzero;stroke:none"
           d="m 0,0 c -8.768,0 -15.692,4.745 -20.602,14.89 -7.263,15.004 -5.876,30.479 -5.871,30.637 l 0.738,-0.296 c -0.004,-0.155 -0.584,-14.727 5.964,-28.497 5.655,-11.89 13.89,-17.123 25.046,-14.868 13.639,2.765 23.496,20.772 23.596,20.954 0,0 -1.424,-6.204 -10.604,-14.863 C 14.738,4.628 10.219,1.552 5.365,0.569 3.496,0.19 1.709,0 0,0" /></g><g
         transform="translate(651.568,389.74)"
         id="g164"><path
           inkscape:connector-curvature="0"
           id="path166"
           style="fill:#231f20;fill-opacity:1;fill-rule:nonzero;stroke:none"
           d="m 0,0 c -0.414,0 -0.823,0.016 -1.232,0.047 -5.038,0.393 -9.481,3.68 -13.465,8.638 -8.524,10.608 -8.439,30.863 -8.432,31.72 l 0.909,-0.008 C -22.221,40.19 -22.308,19.608 -13.989,9.255 -10.168,4.5 -5.808,1.901 -1.03,1.528 4.256,1.121 9.96,3.545 15.456,8.549 28.481,20.405 34.612,40.907 35.857,55.667 l 0.829,-0.261 C 35.952,39.329 29.765,20.105 16.047,7.313 10.836,2.455 5.188,0.001 0,0" /></g><g
         transform="translate(649.812,338.364)"
         id="g168"><path
           inkscape:connector-curvature="0"
           id="path170"
           style="fill:#231f20;fill-opacity:1;fill-rule:nonzero;stroke:none"
           d="m 0,0 c -14.478,0 -20.876,10.262 -20.876,10.262 l 1.828,16.262 0.609,-0.515 c 0.106,-0.122 10.905,-12.225 31.525,-7.757 l 0.145,-0.665 c -18.506,-4.012 -29.102,5.037 -31.498,7.375 l -1.904,-14.539 c 0.806,-1.195 9.298,-12.944 28.023,-8.749 0.643,0.791 4.746,8.749 7.236,13.689 l 0.963,-0.556 C 9.376,1.175 8.285,1.073 8.087,1.028 5.182,0.371 2.434,0 0,0" /></g><g
         transform="translate(644.445,323.948)"
         id="g172"><path
           inkscape:connector-curvature="0"
           id="path174"
           style="fill:#231f20;fill-opacity:1;fill-rule:nonzero;stroke:none"
           d="M 0,0 C -0.803,0 -1.617,0.115 -2.534,0.823 -2.982,1.169 -3.408,1.567 -3.82,1.951 -4.964,3.018 -5.869,3.735 -7.34,3.624 -7.908,3.59 -8.703,3.472 -9.625,3.335 c -2.994,-0.443 -6.718,-0.998 -7.934,0.429 -0.988,1.158 -0.962,2.707 -0.938,4.203 0.006,0.331 0.01,1.242 0.015,1.37 0.036,0.767 0.061,1.322 -2.082,1.517 -4.304,0.391 -7.024,0.925 -7.279,2.381 -0.274,1.556 1.431,2.961 2.623,3.801 1.173,0.826 1.578,1.281 1.646,1.62 0.16,0.779 -0.509,0.941 -0.509,0.941 -1.553,0.687 -3.313,1.466 -2.942,2.687 0.332,1.089 2.154,1.188 4.678,1.323 2.386,0.129 5.356,0.29 6.955,1.468 l 0.472,-0.639 c -1.791,-1.32 -4.762,-1.481 -7.385,-1.622 -1.777,-0.097 -3.79,-0.204 -3.959,-0.761 -0.167,-0.547 2.862,-1.895 2.503,-1.729 -0.358,0.167 0.778,-0.295 0.957,-1.011 0.19,-0.765 0.212,-1.307 -1.986,-2.946 -0.999,-0.745 -2.634,-1.694 -2.452,-2.728 0.202,-1.148 4.826,-1.569 6.568,-1.726 2.679,-0.244 2.856,-1.25 2.805,-2.347 -0.006,-0.11 -0.009,-1.005 -0.013,-1.346 -0.024,-1.411 -0.046,-2.744 0.747,-3.675 0.928,-1.09 4.709,-0.528 7.211,-0.158 0.94,0.14 1.751,0.261 2.353,0.298 1.817,0.098 3.072,-1.063 4.288,-2.198 0.399,-0.372 0.811,-0.757 1.231,-1.08 1.507,-1.166 2.584,-0.506 3.969,0.599 L 2.279,2.295 C 4.922,4.411 6.182,5.207 8.782,4.29 L 9.205,4.137 c 1.974,-0.711 5.962,-2.097 7.447,-1.688 1.441,0.397 0.26,4.201 0.198,4.576 -0.152,0.914 -0.23,1.334 0.152,1.68 0.401,0.364 1.006,0.237 1.882,-10e-4 0.174,-0.047 0.45,-0.151 0.79,-0.28 1.002,-0.383 2.871,-1.099 3.672,-0.716 0.155,0.073 0.253,0.186 0.307,0.355 0.174,0.889 -4.693,5.364 -9.303,9.001 l 0.492,0.623 C 17.901,15.277 25.299,9.947 24.768,7.604 24.68,7.22 24.395,6.944 24.046,6.777 22.939,6.247 20.662,7.195 19.39,7.68 19.083,7.798 17.762,8.309 17.537,8.116 17.312,7.923 19.407,2.527 17.442,1.58 15.905,0.84 11.956,2.196 8.873,3.306 L 8.451,3.458 C 6.618,4.111 5.343,3.423 2.752,1.349 L 2.389,1.059 C 1.564,0.4 0.778,0.001 0,0" /></g><g
         transform="translate(628.137,355.89)"
         id="g176"><path
           inkscape:connector-curvature="0"
           id="path178"
           style="fill:#231f20;fill-opacity:1;fill-rule:nonzero;stroke:none"
           d="m 0,0 c -1.167,0 -2.77,0.185 -4.222,1.363 -1.267,1.026 -1.913,2.832 -1.731,4.83 0.206,2.248 1.519,4.356 3.263,5.308 4.095,2.233 6.199,-0.622 6.221,-0.651 L 2.884,10.387 c -0.068,0.095 -1.732,2.305 -5.193,0.415 -1.514,-0.825 -2.568,-2.573 -2.749,-4.56 -0.158,-1.734 0.38,-3.281 1.44,-4.141 2.604,-2.11 5.432,-1.015 5.46,-1.004 L 2.138,0.358 C 2.07,0.331 1.215,0 0,0" /></g><g
         transform="translate(618.32,351.947)"
         id="g180"><path
           inkscape:connector-curvature="0"
           id="path182"
           style="fill:#231f20;fill-opacity:1;fill-rule:nonzero;stroke:none"
           d="m 0,0 c -2.867,1.554 -5.862,3.359 -5.745,4.175 0.204,1.428 9.968,5.429 10.064,5.46 L 4.534,8.989 C 3.522,8.651 -4.482,4.976 -4.828,4.073 -4.541,3.189 3.534,-1.027 5.7,-1.94 5.7,-1.94 4.61,-2.499 0,0" /></g><g
         transform="translate(617.723,354.916)"
         id="g184"><path
           inkscape:connector-curvature="0"
           id="path186"
           style="fill:#231f20;fill-opacity:1;fill-rule:nonzero;stroke:none"
           d="M 0,0 C 0,0 0.047,1.327 5.801,3.536 L 6.071,2.911 C 3.889,1.971 0.472,0.42 0,0" /></g><g
         transform="translate(629.51,350.272)"
         id="g188"><path
           inkscape:connector-curvature="0"
           id="path190"
           style="fill:#231f20;fill-opacity:1;fill-rule:nonzero;stroke:none"
           d="m 0,0 c -4.961,1.098 -11.114,4.755 -11.405,4.898 l 0.302,0.613 C -11.032,5.475 -4.008,2.025 0.017,1.057 L 0,0" /></g><g
         transform="translate(619.855,346.918)"
         id="g192"><path
           inkscape:connector-curvature="0"
           id="path194"
           style="fill:#231f20;fill-opacity:1;fill-rule:nonzero;stroke:none"
           d="m 0,0 c -0.664,0.225 -3.93,1.417 -3.394,3.027 0.519,1.559 5.107,0.913 5.97,0.796 L 2.956,3.272 C 1.098,3.522 -2.242,3.419 -2.493,2.667 -2.731,1.952 -0.344,0.842 1.003,0.386 L 0,0" /></g><g
         transform="translate(641.119,317.723)"
         id="g196"><path
           inkscape:connector-curvature="0"
           id="path198"
           style="fill:#231f20;fill-opacity:1;fill-rule:nonzero;stroke:none"
           d="M 0,0 C 0.074,0.497 2.207,3.308 3.233,4.658 3.382,4.855 3.519,5.034 3.647,5.205 3.471,5.164 3.295,5.137 3.111,5.13 2.947,5.125 2.807,5.157 2.681,5.205 L 2.496,4.953 C 0.213,1.944 -0.806,0.51 -0.806,-0.017 c 0,-0.727 2.611,-2.275 4.757,-3.55 l 0.694,0.283 C 2.658,-2.104 0.149,-0.365 0,0" /></g><g
         transform="translate(638.698,314.457)"
         id="g200"><path
           inkscape:connector-curvature="0"
           id="path202"
           style="fill:#231f20;fill-opacity:1;fill-rule:nonzero;stroke:none"
           d="M 0,0 -0.614,-0.112 C -0.595,0.17 -1.378,9.454 -1.378,9.67 L -0.514,9.32 C -0.514,9.121 0.048,0.194 0,0" /></g><g
         transform="translate(636.408,314.227)"
         id="g204"><path
           inkscape:connector-curvature="0"
           id="path206"
           style="fill:#231f20;fill-opacity:1;fill-rule:nonzero;stroke:none"
           d="m 0,0 -0.535,0.084 c -0.04,0.252 -1.131,3.701 -1.914,6.448 -1.027,3.601 -1.666,5.876 -1.705,6.142 l 0.994,-0.52 C -3.119,11.893 -2.446,9.379 -1.679,6.688 -0.16,1.365 0,0.17 0,0" /></g><g
         transform="translate(635.03,314.574)"
         id="g208"><path
           inkscape:connector-curvature="0"
           id="path210"
           style="fill:#231f20;fill-opacity:1;fill-rule:nonzero;stroke:none"
           d="M 0,0 C 0,0 2.74,-0.686 4.413,0.227 4.413,0.227 2.763,-1.732 0,0" /></g><g
         transform="translate(674.893,362.545)"
         id="g212"><path
           inkscape:connector-curvature="0"
           id="path214"
           style="fill:#231f20;fill-opacity:1;fill-rule:nonzero;stroke:none"
           d="m 0,0 -0.426,0.709 c 11.738,7.431 25.905,16.162 26.806,15.609 0.226,-0.142 0.577,-0.475 1.107,-0.979 1.706,-1.62 4.884,-4.63 7.37,-4.307 0.939,0.122 1.74,0.956 2.09,2.173 0.433,1.521 0.172,3.744 -1.869,5.424 -3.487,2.864 -10.399,2.305 -10.399,2.305 0,0 -0.361,5.231 -3.273,5.309 -0.902,0.024 -1.559,-0.173 -1.812,-0.65 -0.206,-0.388 0.065,-0.973 0.263,-1.228 0.177,-0.231 3.139,-3.885 2.92,-4.146 C 21.316,18.462 -0.997,1.659 -1.222,1.492 l -0.403,0.55 c 1.297,0.952 21.398,16.736 23.565,18.478 -0.309,0.616 -2.331,2.627 -2.828,3.409 -0.343,0.539 -0.47,1.494 -0.165,2.069 0.224,0.421 0.808,1.009 2.428,1.005 2.609,-0.008 3.832,-2.577 3.832,-5.56 2.058,0.249 7.001,0.819 10.543,-2.272 2.244,-1.957 2.699,-4.74 2.226,-6.39 -0.426,-1.484 -1.443,-2.504 -2.655,-2.663 -2.802,-0.374 -6.319,2.546 -8.109,4.243 -0.396,0.377 -1.017,1.004 -1.209,1.146 C 24.428,15.231 9.719,6.153 0,0" /></g><g
         transform="translate(669.78,365.028)"
         id="g216"><path
           inkscape:connector-curvature="0"
           id="path218"
           style="fill:#231f20;fill-opacity:1;fill-rule:nonzero;stroke:none"
           d="m 0,0 c -2.112,0 -3.948,-1.13 -4.669,-1.888 -2.486,-2.624 -2.806,-6.05 -0.776,-8.332 1.095,-1.23 2.527,-1.881 4.145,-1.881 1.374,0 2.767,0.477 4.03,1.379 1.486,1.063 2.566,2.89 2.751,4.654 C 5.643,-4.517 5.136,-3.05 4.015,-1.826 2.903,-0.615 1.552,0 0,0 Z m -1.224,-13.045 c -1.825,0 -3.509,0.762 -4.74,2.148 -2.316,2.603 -2.064,6.62 0.719,9.556 1.006,1.061 3.131,2.136 5.245,2.136 1.76,0 3.35,-0.721 4.6,-2.084 1.28,-1.397 1.901,-3.201 1.716,-4.984 -0.21,-2.011 -1.359,-4.037 -3.049,-5.245 -1.399,-0.999 -2.951,-1.527 -4.491,-1.527" /></g><g
         transform="translate(651.331,301.551)"
         id="g220"><path
           inkscape:connector-curvature="0"
           id="path222"
           style="fill:#231f20;fill-opacity:1;fill-rule:nonzero;stroke:none"
           d="m 0,0 c -0.638,0 -1.288,0.149 -1.909,0.399 -1.428,0.574 -2.348,1.722 -2.728,2.762 -0.202,0.554 -0.2,1.064 0.007,1.475 0.373,0.748 1.623,0.625 2.711,0.562 0.482,-0.028 1.484,-0.086 1.559,0.112 0.168,0.458 0.33,2.012 0.171,2.288 -0.397,0.29 -5.694,2.023 -7.621,2.58 -1.329,0.383 -1.119,2.633 -0.722,3.989 L -7.875,13.88 -7.879,13.857 C -8.092,12.605 -8.095,11.071 -7.4,10.871 -5.983,10.462 -0.056,8.505 0.39,8.06 0.968,7.485 0.287,5.097 0.278,5.075 0.03,4.4 -0.936,4.457 -1.96,4.518 -2.702,4.56 -3.721,4.621 -3.893,4.276 -4.045,3.972 -3.964,3.599 -3.868,3.339 -3.554,2.477 -2.651,1.58 -1.674,1.158 -0.588,0.689 0.649,0.701 1.554,1.195 2.105,1.494 2.453,1.934 2.536,2.43 2.716,3.503 2.638,4.763 2.581,5.683 2.516,6.751 2.487,7.194 2.779,7.388 3.091,7.592 3.517,7.369 4.737,6.624 5.12,6.391 5.697,6.039 5.845,6.009 5.931,6.069 6.232,6.527 6.253,6.72 5.62,7.18 0.099,11.264 -3.757,16.506 -3.966,16.699 -5.423,16.342 -6.135,15.772 l -0.426,0.532 c 0.634,0.508 2.017,1.144 2.8,1.046 0.266,-0.036 0.465,-0.139 0.59,-0.309 C 0.773,11.679 6.638,7.356 6.879,7.183 6.976,7.113 7.089,6.946 6.982,6.51 6.874,6.074 6.499,5.341 6.06,5.279 5.805,5.239 3.353,6.838 3.049,6.98 3.044,6.738 3.499,4.762 3.245,2.183 3.176,1.469 2.655,0.863 1.917,0.461 1.353,0.155 0.689,0 0,0" /></g><g
         transform="translate(644.266,314.054)"
         id="g224"><path
           inkscape:connector-curvature="0"
           id="path226"
           style="fill:#231f20;fill-opacity:1;fill-rule:nonzero;stroke:none"
           d="M 0,0 C 0,0 2.007,0 3.105,3.152 3.105,3.152 2.962,-0.43 0,0" /></g><g
         transform="translate(646.793,315.664)"
         id="g228"><path
           inkscape:connector-curvature="0"
           id="path230"
           style="fill:#231f20;fill-opacity:1;fill-rule:nonzero;stroke:none"
           d="m 0,0 c -0.361,0.181 -2.522,2.163 -2.697,2.381 l 0.425,0.601 C -2.088,2.754 -0.027,0.623 0.23,0.479 L 0,0" /></g><g
         transform="translate(648.68,324.036)"
         id="g232"><path
           inkscape:connector-curvature="0"
           id="path234"
           style="fill:#231f20;fill-opacity:1;fill-rule:nonzero;stroke:none"
           d="m 0,0 -0.198,0.028 c -2.273,-2.444 -4.697,-5.373 -4.789,-6.858 0,0 2.711,3.607 5.94,7.051 C 0.663,0.098 0.351,0.024 0,0" /></g><g
         transform="translate(638.632,299.413)"
         id="g236"><path
           inkscape:connector-curvature="0"
           id="path238"
           style="fill:#231f20;fill-opacity:1;fill-rule:nonzero;stroke:none"
           d="m 0,0 c 0,0 -0.467,2.467 -0.626,2.962 -0.068,-0.053 -3.391,-3.361 -5.149,-2.935 -1.626,0.394 -3.731,2.711 -3.939,4.172 -0.111,0.771 0.151,1.51 0.652,2.088 0.358,0.411 0.805,0.648 1.227,0.648 0.967,0 1.932,-0.897 2.784,-1.689 0.405,-0.375 1.014,-0.943 1.222,-0.943 l 0.01,0.001 c 0.576,0.076 1.928,1.453 2.16,1.868 -0.239,0.821 -2.8,6.844 -3.375,7.993 -0.164,0.327 -0.174,0.685 -0.025,1.01 0.267,0.584 1.001,1.032 2.183,1.332 l 0.168,-0.662 c -1.274,-0.323 -1.631,-0.736 -1.731,-0.954 -0.064,-0.139 -0.059,-0.276 0.013,-0.42 0.216,-0.433 3.503,-7.875 3.46,-8.36 C -1.015,5.592 -2.829,3.749 -3.73,3.628 -4.239,3.56 -4.775,4.058 -5.515,4.748 -6.237,5.418 -7.136,6.253 -7.835,6.253 -8.057,6.253 -8.322,6.098 -8.547,5.839 -8.92,5.41 -9.094,4.806 -9.011,4.226 c 0.158,-1.104 1.948,-3.082 3.41,-3.461 1.124,-0.291 3.311,1.452 4.241,2.197 0.624,0.5 0.737,0.59 0.971,0.448 0.132,-0.077 0.246,-0.145 0.909,-2.698 0.36,0.02 0.621,0.034 0.815,0.039 -0.018,0.566 0.302,13.443 0.159,14.077 -0.188,0.833 -1.448,1.106 -1.659,1.064 l -0.106,0.674 C 0.243,16.639 1.878,16.223 2.159,14.977 2.307,14.315 2.036,0.134 2.036,0.134 L 0,0" /></g><g
         transform="translate(671.281,402.498)"
         id="g240"><path
           inkscape:connector-curvature="0"
           id="path242"
           style="fill:#231f20;fill-opacity:1;fill-rule:nonzero;stroke:none"
           d="m 0,0 c -0.06,0.899 1.461,35.895 1.635,37.111 l 1.131,0.493 C 2.602,36.45 0.686,0.999 0.737,0.049 L 0,0" /></g><g
         transform="translate(659.373,392.68)"
         id="g244"><path
           inkscape:connector-curvature="0"
           id="path246"
           style="fill:#231f20;fill-opacity:1;fill-rule:nonzero;stroke:none"
           d="m 0,0 c -0.021,0.297 -2.594,29.34 -0.941,41.437 l 1.146,0.366 C -1.437,29.781 0.715,0.35 0.737,0.055 L 0,0" /></g><g
         transform="translate(645.811,391.688)"
         id="g248"><path
           inkscape:connector-curvature="0"
           id="path250"
           style="fill:#231f20;fill-opacity:1;fill-rule:nonzero;stroke:none"
           d="m 0,0 c -0.026,0.259 -2.896,25.545 -1.77,39.209 l 1.142,0.499 C -1.748,26.107 0.71,0.328 0.736,0.071 L 0,0" /></g><g
         transform="translate(636.869,398.613)"
         id="g252"><path
           inkscape:connector-curvature="0"
           id="path254"
           style="fill:#231f20;fill-opacity:1;fill-rule:nonzero;stroke:none"
           d="m 0,0 c -0.041,0.148 -4.495,14.471 -4.371,31.158 l 1.244,0.441 C -3.25,15.015 0.672,0.34 0.712,0.193 L 0,0" /></g><g
         transform="translate(633.646,346.287)"
         id="g256"><path
           inkscape:connector-curvature="0"
           id="path258"
           style="fill:#231f20;fill-opacity:1;fill-rule:nonzero;stroke:none"
           d="m 0,0 c 0.909,-0.549 1.952,-1.12 2.303,-1.23 0.124,0.266 0.237,1.122 0.307,1.649 0.075,0.576 0.146,1.12 0.249,1.427 L 2.954,2.129 3.231,2.022 c 0,0 4.618,-1.79 6.074,-2.33 0.466,-0.173 1.293,-0.358 2.213,-0.358 1.05,0 2.912,0.252 3.584,1.944 0.856,2.158 -0.194,3.775 -3.746,5.767 -2.457,1.378 -8.508,3.334 -9.8,3.73 C 1.213,9.333 0.064,1.399 0,0 Z m 2.497,-1.848 c -0.45,0 -3.161,1.473 -3.161,1.473 0,0 1.45,11.598 1.829,11.69 0.378,0.09 7.65,-2.194 10.468,-3.775 2.789,-1.563 5.373,-3.514 4.166,-6.555 -0.795,-2.004 -2.918,-2.304 -4.112,-2.304 h -10e-4 c -0.844,0 -1.745,0.148 -2.409,0.394 C 8.043,-0.468 4.375,0.97 3.327,1.375 3.271,1.094 2.983,-1.848 2.497,-1.848" /></g><g
         transform="translate(638.8,352.503)"
         id="g260"><path
           inkscape:connector-curvature="0"
           id="path262"
           style="fill:#231f20;fill-opacity:1;fill-rule:nonzero;stroke:none"
           d="m 0,0 c -0.791,0 -0.962,-0.918 -0.995,-1.212 -0.083,-0.722 4.06,-2.269 5.502,-2.468 0.597,-0.082 1.119,0.098 1.374,0.444 0.116,0.158 0.153,0.329 0.105,0.48 C 5.721,-2.221 1.213,-0.042 0.004,0 Z m 4.446,-4.119 c -1.115,0.147 -5.01,1.527 -5.753,2.465 -0.126,0.16 -0.136,0.615 -0.136,0.615 0.066,0.501 0.188,1.438 1.437,1.438 H 0.082 C 1.149,0.362 6.161,-1.7 6.434,-2.535 6.533,-2.837 6.53,-3.216 6.311,-3.495 5.649,-4.337 4.567,-4.134 4.446,-4.119" /></g><g
         transform="translate(654.55,363.587)"
         id="g264"><path
           inkscape:connector-curvature="0"
           id="path266"
           style="fill:#231f20;fill-opacity:1;fill-rule:nonzero;stroke:none"
           d="M 0,0 C 0,0 4.261,10.413 5.87,16.377 5.87,16.377 4.923,7.574 0,0" /></g><g
         transform="translate(648.018,365.859)"
         id="g268"><path
           inkscape:connector-curvature="0"
           id="path270"
           style="fill:#231f20;fill-opacity:1;fill-rule:nonzero;stroke:none"
           d="M 0,0 C 0,0 3.597,9.278 3.503,15.905 L 0,0" /></g><g
         transform="translate(640.917,366.805)"
         id="g272"><path
           inkscape:connector-curvature="0"
           id="path274"
           style="fill:#231f20;fill-opacity:1;fill-rule:nonzero;stroke:none"
           d="M 0,0 C 0,0 2.651,10.697 1.325,17.135 L 0,0" /></g><g
         transform="translate(635.711,367.751)"
         id="g276"><path
           inkscape:connector-curvature="0"
           id="path278"
           style="fill:#231f20;fill-opacity:1;fill-rule:nonzero;stroke:none"
           d="M 0,0 C 0,0 1.136,9.942 1.041,15.811 1.041,15.811 2.555,7.764 0,0" /></g><g
         transform="translate(671.684,454.041)"
         id="g280"><path
           inkscape:connector-curvature="0"
           id="path282"
           style="fill:#231f20;fill-opacity:1;fill-rule:nonzero;stroke:none"
           d="m 0,0 c -0.045,0.324 -1.059,7.987 1.361,14.038 2.51,6.271 7.666,7.38 10.674,6.321 1.196,-0.422 2.236,-1.618 2.856,-3.262 0.901,-2.391 1.646,-7.783 -3.479,-17.036 l -0.597,0.33 c 4.993,9.013 4.235,13.532 3.377,15.813 -0.542,1.436 -1.456,2.505 -2.45,2.861 C 9.477,19.879 4.322,19.229 1.985,13.39 -0.368,7.509 0.664,0.171 0.673,0.093 L 0,0" /></g><g
         transform="translate(667.102,451.763)"
         id="g284"><path
           inkscape:connector-curvature="0"
           id="path286"
           style="fill:#231f20;fill-opacity:1;fill-rule:nonzero;stroke:none"
           d="M 0,0 C 0,0 6.841,4.068 20.212,1.385 20.212,1.385 8.695,6.693 0,0" /></g><g
         transform="translate(677.271,456.365)"
         id="g288"><path
           inkscape:connector-curvature="0"
           id="path290"
           style="fill:#2857af;fill-opacity:1;fill-rule:nonzero;stroke:none"
           d="M 0,0 C -2.32,0.379 -1.36,9.798 2.485,9.351 5.734,8.973 2.985,-0.486 0,0" /></g><g
         transform="translate(680.111,474.116)"
         id="g292"><path
           inkscape:connector-curvature="0"
           id="path294"
           style="fill:#231f20;fill-opacity:1;fill-rule:nonzero;stroke:none"
           d="M 0,0 -1.059,-0.161 -1.136,5.302 0.19,5.254 0,0" /></g><g
         transform="translate(682.857,474.258)"
         id="g296"><path
           inkscape:connector-curvature="0"
           id="path298"
           style="fill:#231f20;fill-opacity:1;fill-rule:nonzero;stroke:none"
           d="M 0,0 -1.039,0.174 0.024,5.373 1.278,5.16 0,0" /></g><g
         transform="translate(685.129,473.075)"
         id="g300"><path
           inkscape:connector-curvature="0"
           id="path302"
           style="fill:#231f20;fill-opacity:1;fill-rule:nonzero;stroke:none"
           d="M 0,0 -0.771,0.671 1.515,4.994 2.58,4.26 0,0" /></g><g
         transform="translate(681.17,447.848)"
         id="g304"><path
           inkscape:connector-curvature="0"
           id="path306"
           style="fill:#231f20;fill-opacity:1;fill-rule:nonzero;stroke:none"
           d="M 0,0 C 0,0 5.289,-1.256 11.152,-7.017 11.152,-7.017 8.849,-0.628 0,0" /></g><g
         transform="translate(683.865,424.627)"
         id="g308"><path
           inkscape:connector-curvature="0"
           id="path310"
           style="fill:#231f20;fill-opacity:1;fill-rule:nonzero;stroke:none"
           d="m 0,0 -0.678,0.049 c 0.827,11.476 0.536,20.97 0.534,21.07 l 0.721,0.488 C 0.58,21.508 1.23,12.87 0,0" /></g><g
         transform="translate(589.744,436.268)"
         id="g312"><path
           inkscape:connector-curvature="0"
           id="path314"
           style="fill:#ee2049;fill-opacity:1;fill-rule:nonzero;stroke:none"
           d="m 0,0 -0.279,0.621 c 5.674,2.55 8.019,6.579 8.305,9.254 0.189,1.77 -0.435,2.937 -1.671,3.876 -3.56,2.701 -8.712,-2.124 -8.767,-2.174 l -0.323,-0.307 -0.211,0.393 c -1.527,2.841 -3.954,3.694 -5.616,3.226 -1.483,-0.423 -2.258,-1.898 -2.124,-4.049 0.271,-4.393 4.616,-8.257 4.661,-8.296 L -6.474,2.032 c -0.189,0.165 -4.737,4.202 -5.026,8.882 -0.152,2.462 0.997,4.64 2.789,5.149 1.84,0.526 4.522,-0.465 6.235,-3.335 1.627,1.499 5.959,4.532 9.271,2.091 C 8.248,13.748 9.106,12.19 8.891,10.168 8.57,7.177 6.369,2.855 0,0" /></g><g
         transform="translate(595.246,528.743)"
         id="g316"><path
           inkscape:connector-curvature="0"
           id="path318"
           style="fill:#231f20;fill-opacity:1;fill-rule:nonzero;stroke:none"
           d="m 0,0 c 0,0 1.516,4.489 7.631,4.655 5.781,0.158 7.676,-3.864 7.676,-3.864 0,0 -1.078,-0.183 -1.162,-0.058 C 14.063,0.858 11.768,3.541 7.613,3.36 1.873,3.111 1.223,-0.119 1.223,-0.119 L 0,0" /></g><g
         transform="translate(643.102,322.152)"
         id="g320"><path
           inkscape:connector-curvature="0"
           id="path322"
           style="fill:#231f20;fill-opacity:1;fill-rule:nonzero;stroke:none"
           d="m 0,0 c -4.918,0 -9.706,2.804 -11.793,5.175 l 0.662,0.378 C -9.051,3.192 -3.862,0.866 0.837,1.081 4.521,1.244 8.101,2.89 10.277,5.849 L 11.022,5.316 C 8.466,1.861 4.605,0.189 0.656,0.015 0.437,0.005 0.216,0 0,0" /></g><g
         transform="translate(629.729,428.649)"
         id="g324"><path
           inkscape:connector-curvature="0"
           id="path326"
           style="fill:#231f20;fill-opacity:1;fill-rule:nonzero;stroke:none"
           d="m 0,0 c -33.971,-0.402 -62.522,15.282 -62.817,15.432 0,0 -10.397,30.664 2.93,79.856 0.449,1.656 37.724,10.405 68.617,4.468 1.859,-0.358 33.404,-15.088 55.475,-33.154 L 63.666,65.87 C 42.317,81.567 10.384,98.043 8.593,98.326 -21.886,103.137 -55.958,95.596 -58.256,94.333 -70.26,46.205 -62.135,18.884 -61.363,16.481 -58.917,15.278 -30.228,1.517 1.093,1.967 33.619,2.432 54.932,18.089 55.14,18.249 l 0.639,-0.616 C 55.57,17.472 34.353,0.48 1.509,0.011 1.007,0.003 0.5,0 0,0" /></g><g
         transform="translate(705.483,471.699)"
         id="g328"><path
           inkscape:connector-curvature="0"
           id="path330"
           style="fill:#ce6111;fill-opacity:1;fill-rule:nonzero;stroke:none"
           d="M 0,0 C -2.571,3.966 -1.559,7.425 -1.528,7.572 L -0.64,7.373 C -0.647,7.341 -1.32,4.105 1.16,0.586 4.243,-3.79 9.122,-3.803 9.279,-3.784 9.279,-3.784 3.542,-5.465 0,0" /></g><g
         transform="translate(700.564,480.118)"
         id="g128"><path
           inkscape:connector-curvature="0"
           id="path130"
           style="fill:#ce6111;fill-opacity:1;fill-rule:nonzero;stroke:none"
           d="m 0,0 c -2.459,-0.189 -5.658,7.017 -6.785,10.744 -1.14,3.78 -1.316,9.231 0.494,10.223 0.5,0.272 1.101,0.284 1.78,0.034 2.085,-0.767 5.164,-3.985 7.206,-7.074 C 5.606,9.525 5.192,7.734 5.192,7.734 4.546,9.428 -1.397,18.413 -4.533,19.567 -4.96,19.726 -5.298,19.733 -5.56,19.589 -6.618,19.01 -6.902,15.213 -5.685,11.184 -4.114,5.983 -0.865,0.859 0.019,1.119 c 1.548,0.455 -0.126,5.828 -0.126,6.019 0,0 0.824,-0.766 1.342,-3.287 C 1.622,1.966 0.837,0.064 0,0" /></g></g></g></svg>