<svg xmlns="http://www.w3.org/2000/svg" viewBox="0 0 64 64">
  <!-- Shopping cart body -->
  <path d="M12 18 L8 8 L2 8" stroke="#E63946" stroke-width="3" fill="none" stroke-linecap="round"/>
  <path d="M12 18 L16 42 L52 42 L58 18 Z" fill="#457B9D" stroke="#1D3557" stroke-width="2" stroke-linejoin="round"/>
  <!-- Cart lines for detail -->
  <line x1="18" y1="26" x2="52" y2="26" stroke="#A8DADC" stroke-width="1.5" opacity="0.6"/>
  <line x1="20" y1="34" x2="50" y2="34" stroke="#A8DADC" stroke-width="1.5" opacity="0.6"/>
  <!-- UI cursor / click icon inside cart -->
  <path d="M32 22 L32 36 L37 32 L42 38" stroke="#F1FAEE" stroke-width="2.5" fill="none" stroke-linecap="round" stroke-linejoin="round"/>
  <circle cx="42" cy="38" r="1.5" fill="#F1FAEE"/>
  <!-- Wheels -->
  <circle cx="22" cy="50" r="5" fill="#1D3557" stroke="#A8DADC" stroke-width="2"/>
  <circle cx="22" cy="50" r="1.5" fill="#A8DADC"/>
  <circle cx="46" cy="50" r="5" fill="#1D3557" stroke="#A8DADC" stroke-width="2"/>
  <circle cx="46" cy="50" r="1.5" fill="#A8DADC"/>
  <!-- Sparkle for fun -->
  <path d="M54 10 L56 6 L58 10 L62 12 L58 14 L56 18 L54 14 L50 12 Z" fill="#E9C46A"/>
</svg>
